<svg xmlns="http://www.w3.org/2000/svg" width="8.838" height="14.963" viewBox="0 0 8.838 14.963">
  <g id="download_1_" data-name="download (1)" transform="translate(-100.698 14.963) rotate(-90)">
    <g id="Group_342" data-name="Group 342" transform="translate(0 100.698)">
      <path id="Path_329" data-name="Path 329" d="M14.724,101.437l-.49-.494a.82.82,0,0,0-1.158,0l-5.591,5.591-5.6-5.6a.821.821,0,0,0-1.158,0l-.49.49a.819.819,0,0,0,0,1.158L6.9,109.273a.837.837,0,0,0,.58.263h0a.836.836,0,0,0,.579-.263l6.658-6.67a.827.827,0,0,0,.239-.585A.818.818,0,0,0,14.724,101.437Z" transform="translate(0 -100.698)" fill="#8a8a8a"/>
    </g>
  </g>
</svg>
