<svg xmlns="http://www.w3.org/2000/svg" width="21.802" height="21.802" viewBox="0 0 21.802 21.802">
  <g id="add-circular-outlined-button" transform="translate(0 0)">
    <g id="_x38__3_">
      <g id="Group_72" data-name="Group 72">
        <path id="Path_34" data-name="Path 34" d="M10.9,0A10.9,10.9,0,1,0,21.8,10.9,10.9,10.9,0,0,0,10.9,0Zm0,20.439A9.538,9.538,0,1,1,20.439,10.9,9.538,9.538,0,0,1,10.9,20.439Zm4.088-10.22H11.582V6.813a.681.681,0,1,0-1.363,0V10.22H6.813a.681.681,0,0,0,0,1.363H10.22v3.407a.681.681,0,1,0,1.363,0V11.582h3.407a.681.681,0,0,0,0-1.363Z" fill="#fff"/>
      </g>
    </g>
  </g>
</svg>
