<svg xmlns="http://www.w3.org/2000/svg" width="32" height="32" viewBox="0 0 32 32">
  <g id="Group_152" data-name="Group 152" transform="translate(-972 -643)">
    <circle id="Ellipse_3" data-name="Ellipse 3" cx="16" cy="16" r="16" transform="translate(972 643)" fill="#f39c12"/>
    <g id="Group_148" data-name="Group 148" transform="translate(-2274.726 -1260.294)">
      <path id="Path_167" data-name="Path 167" d="M219.851,333.382a1.626,1.626,0,0,0,0,3.252,1.627,1.627,0,0,0,0-3.252Z" transform="translate(3042.533 1590.373)" fill="#fff"/>
      <path id="Path_168" data-name="Path 168" d="M218.98,157.222A1.768,1.768,0,0,0,217.725,159c.039.514.072,1.034.111,1.548.111,1.958.221,3.877.332,5.834a1.192,1.192,0,0,0,1.216,1.145,1.216,1.216,0,0,0,1.216-1.184c0-.4,0-.774.039-1.184.072-1.255.15-2.511.221-3.766.039-.813.111-1.626.15-2.439a2.009,2.009,0,0,0-.15-.813A1.63,1.63,0,0,0,218.98,157.222Z" transform="translate(3043 1755.118)" fill="#fff"/>
    </g>
  </g>
</svg>
