<svg xmlns="http://www.w3.org/2000/svg" width="55.085" height="55.09" viewBox="0 0 55.085 55.09">
  <g id="caution_1_" data-name="caution (1)" transform="translate(-0.462 0)">
    <path id="Path_332" data-name="Path 332" d="M46.955,55.09H9.053A8.592,8.592,0,0,1,1.368,42.657l18.95-37.9a8.592,8.592,0,0,1,15.373,0l18.95,37.9A8.592,8.592,0,0,1,46.955,55.09Zm0,0" transform="translate(0)" fill="#ff7761"/>
    <g id="Group_499" data-name="Group 499" transform="translate(26.286 13.77)">
      <path id="Path_333" data-name="Path 333" d="M242.616,128.2a1.719,1.719,0,0,1,1.718,1.718v20.621a1.718,1.718,0,1,1-3.437,0V129.921A1.719,1.719,0,0,1,242.616,128.2Zm0,0" transform="translate(-240.898 -128.203)" fill="#fff"/>
      <path id="Path_334" data-name="Path 334" d="M240.9,384.2h3.437v3.437H240.9Zm0,0" transform="translate(-240.898 -356.708)" fill="#fff"/>
    </g>
  </g>
</svg>
