<svg id="attach" xmlns="http://www.w3.org/2000/svg" width="13.325" height="12.612" viewBox="0 0 13.325 12.612">
  <g id="Group_86" data-name="Group 86" transform="translate(0)">
    <path id="Path_36" data-name="Path 36" d="M12.077,14.95a4.265,4.265,0,0,0-6.024,0L.889,20.114a3.043,3.043,0,0,0,4.3,4.3l4.733-4.733A1.826,1.826,0,1,0,7.344,17.1l-3.1,3.1a.609.609,0,1,0,.861.861l3.1-3.1a.608.608,0,1,1,.861.861L4.332,23.556A1.826,1.826,0,0,1,1.75,20.974l5.164-5.164a3.043,3.043,0,1,1,4.3,4.3L6.053,25.277a.609.609,0,0,0,.861.861l5.163-5.164a4.26,4.26,0,0,0,0-6.024Z" transform="translate(0 -13.704)" fill="#616161"/>
  </g>
</svg>
