<svg xmlns="http://www.w3.org/2000/svg" width="56.002" height="56.002" viewBox="0 0 56.002 56.002">
  <g id="bank" transform="translate(-0.001 0)">
    <g id="Group_663" data-name="Group 663" transform="translate(0.001 -0.001)">
      <g id="Group_662" data-name="Group 662" transform="translate(0)">
        <path id="Path_329" data-name="Path 329" d="M55.07,46.668H53.2v-.933a2.8,2.8,0,0,0-1.867-2.628V24.1A2.8,2.8,0,0,0,53.2,21.467v-.933a2.8,2.8,0,1,0,0-5.6h-.669L28.491.138a.933.933,0,0,0-.978,0L3.47,14.934H2.8a2.8,2.8,0,1,0,0,5.6v.933A2.8,2.8,0,0,0,4.668,24.1V43.106A2.8,2.8,0,0,0,2.8,45.735v.933H.934A.933.933,0,0,0,0,47.6v7.467A.933.933,0,0,0,.934,56H55.07A.933.933,0,0,0,56,55.069V47.6A.933.933,0,0,0,55.07,46.668Zm-3.733-25.2a.933.933,0,0,1-.933.933H46.669a.933.933,0,0,1-.933-.933v-.933h5.6ZM50.4,44.8a.933.933,0,0,1,.933.933v.933h-5.6v-.933a.933.933,0,0,1,.933-.933Zm-2.8-1.867V24.267H49.47V42.935ZM2.8,18.667a.933.933,0,0,1,0-1.867H9.335V14.934h-2.3L28,2.029l20.97,12.9H14.935V16.8H53.2a.933.933,0,0,1,0,1.867ZM21.468,43.106V24.1a2.8,2.8,0,0,0,1.867-2.628v-.933h9.334v.933A2.8,2.8,0,0,0,34.536,24.1V43.106a2.8,2.8,0,0,0-1.867,2.628v.933H23.335v-.933A2.8,2.8,0,0,0,21.468,43.106Zm-.933,1.7a.933.933,0,0,1,.933.933v.933h-5.6v-.933A.933.933,0,0,1,16.8,44.8Zm-2.8-1.867V24.267H19.6V42.935Zm2.8-20.534H16.8a.933.933,0,0,1-.933-.933v-.933h5.6v.933A.933.933,0,0,1,20.535,22.4Zm14,23.334a.933.933,0,0,1,.933-.933H39.2a.933.933,0,0,1,.933.933v.933h-5.6Zm1.867-2.8V24.267h1.867V42.935ZM39.2,22.4H35.469a.933.933,0,0,1-.933-.933v-.933h5.6v.933A.933.933,0,0,1,39.2,22.4Zm-33.6,0a.933.933,0,0,1-.933-.933v-.933h5.6v.933a.933.933,0,0,1-.933.933Zm2.8,1.867V42.935H6.535V24.267H8.4ZM4.668,45.735A.933.933,0,0,1,5.6,44.8H9.335a.933.933,0,0,1,.933.933v.933h-5.6Zm7.467,8.4H1.868v-5.6H12.135ZM10.268,43.106V24.1a2.8,2.8,0,0,0,1.867-2.628v-.933H14v.933A2.8,2.8,0,0,0,15.868,24.1V43.106A2.8,2.8,0,0,0,14,45.735v.933H12.135v-.933A2.8,2.8,0,0,0,10.268,43.106ZM42,54.135H14V52.268H36.4V50.4H14V48.535H42ZM40.136,43.106V24.1A2.8,2.8,0,0,0,42,21.467v-.933h1.867v.933A2.8,2.8,0,0,0,45.736,24.1V43.106a2.8,2.8,0,0,0-1.867,2.628v.933H42v-.933A2.8,2.8,0,0,0,40.136,43.106Zm14,11.029H43.869v-5.6H54.136Z" transform="translate(-0.001 0.001)" fill="#646464"/>
      </g>
    </g>
    <g id="Group_665" data-name="Group 665" transform="translate(38.421 50.466)">
      <g id="Group_664" data-name="Group 664" transform="translate(0 0)">
        <rect id="Rectangle_768" data-name="Rectangle 768" width="2" height="2" transform="translate(-0.419 -0.467)" fill="#646464"/>
      </g>
    </g>
    <g id="Group_667" data-name="Group 667" transform="translate(11.071 14.977)">
      <g id="Group_666" data-name="Group 666" transform="translate(0 0)">
        <rect id="Rectangle_769" data-name="Rectangle 769" width="2" height="2" transform="translate(-0.069 0.023)" fill="#646464"/>
      </g>
    </g>
    <g id="Group_669" data-name="Group 669" transform="translate(24.269 5.6)">
      <g id="Group_668" data-name="Group 668">
        <path id="Path_330" data-name="Path 330" d="M211.734,48a3.733,3.733,0,1,0,3.733,3.733A3.733,3.733,0,0,0,211.734,48Zm0,5.6a1.867,1.867,0,1,1,1.867-1.867A1.867,1.867,0,0,1,211.734,53.6Z" transform="translate(-208.001 -48.002)" fill="#646464"/>
      </g>
    </g>
  </g>
</svg>
