<svg xmlns="http://www.w3.org/2000/svg" width="31.441" height="28.5" viewBox="0 0 31.441 28.5">
  <g id="error" transform="translate(0 -23.946)">
    <path id="Path_110" data-name="Path 110" d="M202.1,26.322l10.976,19.011a4.744,4.744,0,0,1-4.111,7.113H197.985l-3.8-14.25,3.8-14.25A4.742,4.742,0,0,1,202.1,26.322Z" transform="translate(-182.264)" fill="#3b4145"/>
    <path id="Path_111" data-name="Path 111" d="M11.61,26.322.634,45.333a4.744,4.744,0,0,0,4.111,7.113H15.721v-28.5A4.742,4.742,0,0,0,11.61,26.322Z" transform="translate(0)" fill="#525a61"/>
    <path id="Path_112" data-name="Path 112" d="M270.691,75.315,259.715,56.3a2.856,2.856,0,0,0-2.386-1.426l9.387,24.7h1.507a2.846,2.846,0,0,0,2.467-4.266Z" transform="translate(-241.527 -29.033)" fill="#ffb751"/>
    <path id="Path_113" data-name="Path 113" d="M56.326,75.286a3.2,3.2,0,0,1,.328,1.42A2.676,2.676,0,0,1,54.2,79.552H33.753a2.846,2.846,0,0,1-2.467-4.266L42.261,56.275a2.859,2.859,0,0,1,2.467-1.428l.082,0a2.441,2.441,0,0,1,2.046,1.426Z" transform="translate(-29.008 -29.003)" fill="#ffd764"/>
    <path id="Path_114" data-name="Path 114" d="M256,354.131v3.163a1.582,1.582,0,1,0,0-3.163Z" transform="translate(-240.279 -309.909)" fill="#3b4145"/>
    <path id="Path_115" data-name="Path 115" d="M231.827,354.131c.175,0,.316.708.316,1.582s-.142,1.582-.316,1.582a1.582,1.582,0,0,1,0-3.163Z" transform="translate(-216.106 -309.909)" fill="#525a61"/>
    <path id="Path_116" data-name="Path 116" d="M256,132.646v11.7a1.582,1.582,0,0,0,1.582-1.582v-8.54A1.581,1.581,0,0,0,256,132.646Z" transform="translate(-240.279 -102.025)" fill="#3b4145"/>
    <path id="Path_117" data-name="Path 117" d="M231.827,132.646c.175,0,.316.708.316,1.582v8.54c0,.873-.142,1.582-.316,1.582a1.582,1.582,0,0,1-1.582-1.582v-8.54A1.581,1.581,0,0,1,231.827,132.646Z" transform="translate(-216.106 -102.025)" fill="#525a61"/>
  </g>
</svg>
