<svg xmlns="http://www.w3.org/2000/svg" width="18.248" height="20" viewBox="0 0 18.248 20">
  <g id="copy_1_" data-name="copy (1)" transform="translate(0 -8.11)">
    <path id="Path_292" data-name="Path 292" d="M2.386,106.668H13.233a2.388,2.388,0,0,1,2.386,2.386v11.714a2.388,2.388,0,0,1-2.386,2.386H12.8a.651.651,0,1,1,0-1.3h.434a1.086,1.086,0,0,0,1.085-1.085V109.054a1.086,1.086,0,0,0-1.085-1.085H2.386A1.086,1.086,0,0,0,1.3,109.054v.434a.651.651,0,1,1-1.3,0v-.434A2.388,2.388,0,0,1,2.386,106.668Zm0,0" transform="translate(2.628 -98.558)" fill="#2491d9"/>
    <path id="Path_293" data-name="Path 293" d="M130.432,0h9.288a2.435,2.435,0,0,1,2.433,2.433V13.49a2.435,2.435,0,0,1-2.433,2.433h-9.288A2.435,2.435,0,0,1,128,13.49V2.433A2.435,2.435,0,0,1,130.432,0Zm9.288,14.6a1.107,1.107,0,0,0,1.106-1.106V2.433a1.107,1.107,0,0,0-1.106-1.106h-9.288a1.107,1.107,0,0,0-1.106,1.106V13.49a1.107,1.107,0,0,0,1.106,1.106Zm0,0" transform="translate(-128 12.188)" fill="#2491d9"/>
  </g>
</svg>
