<svg xmlns="http://www.w3.org/2000/svg" width="31" height="31" viewBox="0 0 31 31">
  <g id="Group_411" data-name="Group 411" transform="translate(-1280 -18)">
    <rect id="Rectangle_253" data-name="Rectangle 253" width="31" height="31" transform="translate(1280 18)" fill="none"/>
    <g id="Group_93" data-name="Group 93" transform="translate(1282 20)">
      <path id="Path_121" data-name="Path 121" d="M23.045,3.955A13.5,13.5,0,1,0,3.955,23.045,13.5,13.5,0,1,0,23.045,3.955ZM21.96,21.96A11.965,11.965,0,0,1,5.04,5.04,11.965,11.965,0,1,1,21.96,21.96Z" fill="#ff7070"/>
      <path id="Path_122" data-name="Path 122" d="M141.049,129.151a.765.765,0,0,0-1.085,0l-4.864,4.864-4.864-4.864a.767.767,0,0,0-1.085,1.085l4.864,4.864-4.864,4.864a.77.77,0,0,0,.54,1.313.748.748,0,0,0,.54-.227l4.864-4.864,4.864,4.864a.772.772,0,0,0,.54.227.739.739,0,0,0,.54-.227.765.765,0,0,0,0-1.085l-4.852-4.864,4.864-4.864A.765.765,0,0,0,141.049,129.151Z" transform="translate(-121.6 -121.6)" fill="#ff7070"/>
    </g>
  </g>
</svg>
