<svg id="color-wheel" xmlns="http://www.w3.org/2000/svg" width="23.333" height="23.333" viewBox="0 0 23.333 23.333">
  <path id="Path_125" data-name="Path 125" d="M0,11.667A11.667,11.667,0,1,1,11.667,23.333,11.667,11.667,0,0,1,0,11.667Zm11.667,6.977A6.977,6.977,0,1,0,4.69,11.667,6.977,6.977,0,0,0,11.667,18.643Zm0,0" transform="translate(0)" fill="#83d9ff"/>
  <path id="Path_126" data-name="Path 126" d="M256,403.915v-4.69a6.957,6.957,0,0,0,2.525-.471l1.6,4.409a11.641,11.641,0,0,1-4.13.752Zm0,0" transform="translate(-244.333 -380.582)" fill="#3fefef"/>
  <path id="Path_127" data-name="Path 127" d="M311.4,370.6a6.981,6.981,0,0,0,2.169-1.344l3.017,3.594a11.669,11.669,0,0,1-3.581,2.159Zm0,0" transform="translate(-297.21 -352.43)" fill="#1dd1d9"/>
  <path id="Path_128" data-name="Path 128" d="M359,327.334a7.01,7.01,0,0,0,1.528-2l4.065,2.347a11.708,11.708,0,0,1-2.577,3.249Zm0,0" transform="translate(-342.635 -310.506)" fill="#17b5ba"/>
  <path id="Path_129" data-name="Path 129" d="M404.891,203.183l4.624-.816a11.767,11.767,0,0,1,.147,4.049l-4.624-.815a7.116,7.116,0,0,0,.044-.79A6.992,6.992,0,0,0,404.891,203.183Zm0,0" transform="translate(-386.439 -193.145)" fill="#9be058"/>
  <path id="Path_130" data-name="Path 130" d="M384.3,123.281l4.066-2.347a11.6,11.6,0,0,1,1.5,3.711l-4.624.816a6.944,6.944,0,0,0-.938-2.179Zm0,0" transform="translate(-366.787 -115.422)" fill="#c0ff66"/>
  <path id="Path_131" data-name="Path 131" d="M349.652,59.614l3.017-3.595a11.729,11.729,0,0,1,2.628,2.958l-4.066,2.347a7.024,7.024,0,0,0-1.579-1.711Zm0,0" transform="translate(-333.717 -53.466)" fill="#ffdf46"/>
  <path id="Path_132" data-name="Path 132" d="M171.484.651A11.637,11.637,0,0,1,175.336,0V4.69a6.969,6.969,0,0,0-2.247.37Zm0,0" transform="translate(-163.669)" fill="#fc3e81"/>
  <path id="Path_133" data-name="Path 133" d="M96.156,16.191a11.644,11.644,0,0,1,3.432-1.9h0l1.6,4.409a6.948,6.948,0,0,0-2.021,1.088Zm0,0" transform="translate(-91.774 -13.638)" fill="#f01054"/>
  <path id="Path_134" data-name="Path 134" d="M38.488,58.978a11.731,11.731,0,0,1,2.628-2.958l3.017,3.595a7.019,7.019,0,0,0-1.579,1.711Zm0,0" transform="translate(-36.734 -53.467)" fill="#7884ea"/>
  <path id="Path_135" data-name="Path 135" d="M2.41,274.155l4.624-.815a6.937,6.937,0,0,0,.71,2.369L3.68,278.057a11.579,11.579,0,0,1-1.269-3.9Zm0,0" transform="translate(-2.3 -260.883)" fill="#1685fb"/>
  <path id="Path_136" data-name="Path 136" d="M30.266,327.68l4.065-2.347a7.014,7.014,0,0,0,1.528,2l-3.017,3.594A11.714,11.714,0,0,1,30.266,327.68Zm0,0" transform="translate(-28.886 -310.506)" fill="#43a3f9"/>
  <path id="Path_137" data-name="Path 137" d="M86.813,372.852l3.017-3.594A6.978,6.978,0,0,0,92,370.6l-1.6,4.409a11.67,11.67,0,0,1-3.581-2.159Zm0,0" transform="translate(-82.856 -352.43)" fill="#64bdff"/>
  <path id="Path_138" data-name="Path 138" d="M5.637,124.645a11.6,11.6,0,0,1,1.5-3.711l4.066,2.347a6.943,6.943,0,0,0-.938,2.179Zm0,0" transform="translate(-5.38 -115.422)" fill="#4a5be5"/>
  <path id="Path_139" data-name="Path 139" d="M392.531,275.709a6.942,6.942,0,0,0,.71-2.369l4.624.815a11.579,11.579,0,0,1-1.269,3.9Zm0,0" transform="translate(-374.642 -260.883)" fill="#1cc939"/>
  <path id="Path_140" data-name="Path 140" d="M0,204.811a11.676,11.676,0,0,1,.257-2.444l4.624.816a6.994,6.994,0,0,0-.191,1.629,7.1,7.1,0,0,0,.044.79l-4.624.815A11.763,11.763,0,0,1,0,204.811Zm0,0" transform="translate(0 -193.145)" fill="#364ec6"/>
  <path id="Path_141" data-name="Path 141" d="M305.316,18.7l1.6-4.409a11.638,11.638,0,0,1,3.432,1.9l-3.016,3.595A6.954,6.954,0,0,0,305.316,18.7Zm0,0" transform="translate(-291.402 -13.638)" fill="#f9b200"/>
  <path id="Path_142" data-name="Path 142" d="M256,4.69V0a11.64,11.64,0,0,1,3.852.651l-1.6,4.409A6.967,6.967,0,0,0,256,4.69Zm0,0" transform="translate(-244.333)" fill="#fd6096"/>
</svg>
