<svg id="chat" xmlns="http://www.w3.org/2000/svg" width="73" height="73" viewBox="0 0 73 73">
  <g id="Group_6" data-name="Group 6">
    <path id="Path_14" data-name="Path 14" d="M36.5,0A36.543,36.543,0,0,0,0,36.5,36.065,36.065,0,0,0,5.694,56.064L.164,69.87A2.28,2.28,0,0,0,3.13,72.836l13.806-5.53A36.065,36.065,0,0,0,36.5,73a36.5,36.5,0,0,0,0-73Zm0,68.438a31.487,31.487,0,0,1-18-5.571,2.257,2.257,0,0,0-1.3-.406,2.282,2.282,0,0,0-.849.164l-9.974,4,4-9.974a2.287,2.287,0,0,0-.242-2.144,31.487,31.487,0,0,1-5.571-18A31.938,31.938,0,1,1,36.5,68.438Z" fill="#fff"/>
  </g>
</svg>
