<svg xmlns="http://www.w3.org/2000/svg" width="22.333" height="22.333" viewBox="0 0 22.333 22.333">
  <g id="add-circular-outlined-button" transform="translate(0 0)">
    <g id="_x38__3_">
      <g id="Group_72" data-name="Group 72">
        <path id="Path_34" data-name="Path 34" d="M11.167,0A11.167,11.167,0,1,0,22.333,11.167,11.166,11.166,0,0,0,11.167,0Zm0,20.938a9.771,9.771,0,1,1,9.771-9.771A9.771,9.771,0,0,1,11.167,20.938Zm4.188-10.469h-3.49V6.979a.7.7,0,0,0-1.4,0v3.49H6.979a.7.7,0,1,0,0,1.4h3.49v3.49a.7.7,0,0,0,1.4,0v-3.49h3.49a.7.7,0,0,0,0-1.4Z" fill="#fff"/>
      </g>
    </g>
  </g>
</svg>
