<svg xmlns="http://www.w3.org/2000/svg" width="44" height="49.987" viewBox="0 0 44 49.987">
  <g id="contact-book" transform="translate(2.082)">
    <path id="Path_21" data-name="Path 21" d="M35.979,0H7.856A5.953,5.953,0,0,0,1.905,5.951V8.522h-2.8a1.19,1.19,0,0,0-1.19,1.19A1.19,1.19,0,0,0-.892,10.9H1.893v7.807H-.892a1.19,1.19,0,0,0-1.19,1.19,1.19,1.19,0,0,0,1.19,1.19H1.893V28.9H-.892a1.19,1.19,0,0,0-1.19,1.19,1.19,1.19,0,0,0,1.19,1.19H1.893v7.807H-.892a1.19,1.19,0,0,0-1.19,1.19,1.19,1.19,0,0,0,1.19,1.19H1.893v2.571a5.953,5.953,0,0,0,5.951,5.951H35.967a5.953,5.953,0,0,0,5.951-5.951V5.951A5.942,5.942,0,0,0,35.979,0Zm3.57,44.036a3.581,3.581,0,0,1-3.57,3.57H7.856a3.581,3.581,0,0,1-3.57-3.57V41.465H7.07a1.19,1.19,0,1,0,0-2.38H4.285V31.278H7.07a1.19,1.19,0,1,0,0-2.38H4.285V21.09H7.07a1.19,1.19,0,0,0,0-2.38H4.285V10.9H7.07a1.19,1.19,0,1,0,0-2.38H4.285V5.951a3.581,3.581,0,0,1,3.57-3.57H35.979a3.581,3.581,0,0,1,3.57,3.57Zm0,0" fill="#646464"/>
    <path id="Path_22" data-name="Path 22" d="M195.065,149.17a5.772,5.772,0,1,0-5.772-5.772A5.772,5.772,0,0,0,195.065,149.17Zm0-9.176a3.392,3.392,0,1,1-3.392,3.392A3.392,3.392,0,0,1,195.065,139.993Zm0,0" transform="translate(-173.154 -124.521)" fill="#646464"/>
    <path id="Path_23" data-name="Path 23" d="M166,279a8.892,8.892,0,0,0-8.831,9.14,1.194,1.194,0,0,0,1.19,1.19h15.282a1.194,1.194,0,0,0,1.19-1.19A8.892,8.892,0,0,0,166,279Zm-6.356,7.95a6.411,6.411,0,0,1,12.711,0Zm0,0" transform="translate(-144.084 -252.436)" fill="#646464"/>
  </g>
</svg>
