<svg xmlns="http://www.w3.org/2000/svg" width="57.91" height="52.071" viewBox="0 0 57.91 52.071">
  <path id="XMLID_30_" d="M9.327,25.164a.97.97,0,0,1-.97.97H8.084a.97.97,0,1,1,0-1.939h.273A.97.97,0,0,1,9.327,25.164ZM52.376,68.591a3.061,3.061,0,0,1-1.162,4.165l-.006,0a3.031,3.031,0,0,1-1.487.39,3.083,3.083,0,0,1-.831-.115,3.037,3.037,0,0,1-1.842-1.441l-2.543-4.51L42.367,68.29a.97.97,0,0,1-1.446-.854L41.027,56.4a.97.97,0,0,1,1.464-.825l9.5,5.623a.969.969,0,0,1-.018,1.679l-2.139,1.206Zm-1.689.952-3.019-5.355a.97.97,0,0,1,.368-1.321l1.522-.858L42.95,58.1l-.074,7.678,1.521-.858a.969.969,0,0,1,1.321.368l3.019,5.355a1.124,1.124,0,0,0,1.523.425l0,0a1.125,1.125,0,0,0,.422-1.522Zm-8.993-15.97h3.55a.97.97,0,0,0,0-1.939h-3.55a.97.97,0,0,0,0,1.939ZM4.741,24.195H4.468a.97.97,0,1,0,0,1.939h.273a.97.97,0,0,0,0-1.939Zm48.018,27.44H49.21a.97.97,0,0,0,0,1.939h3.55a.97.97,0,1,0,0-1.939ZM11.974,24.195H11.7a.97.97,0,0,0,0,1.939h.273a.97.97,0,1,0,0-1.939Zm7.17,27.44a.97.97,0,0,0,0,1.939h3.549a.97.97,0,0,0,0-1.939Zm7.516,0a.97.97,0,0,0,0,1.939h3.55a.97.97,0,0,0,0-1.939ZM12.434,32.7V51.634h2.743a.97.97,0,1,1,0,1.939H12.434V57.48a.97.97,0,0,1-.97.97h-6a.97.97,0,0,1-.97-.97V32.7a.97.97,0,0,1,.97-.97h6A.97.97,0,0,1,12.434,32.7Zm-1.939.97H6.431V56.51h4.063Zm25.457,6.65a.97.97,0,0,0,.97-.97V35.8a.97.97,0,0,0-1.939,0v3.55A.969.969,0,0,0,35.952,40.315Zm0,15.033a.97.97,0,0,0,.97-.97v-.805h.805a.97.97,0,0,0,0-1.939h-.805v-.805a.97.97,0,0,0-1.939,0v.805h-.805a.97.97,0,0,0,0,1.939h.805v.805A.969.969,0,0,0,35.952,55.349Zm-.97-8.486a.97.97,0,0,0,1.939,0v-3.55a.97.97,0,1,0-1.939,0ZM57.91,23.8V60.146a2.722,2.722,0,0,1-2.719,2.718.97.97,0,1,1,0-1.939.78.78,0,0,0,.779-.779v-30.9H36.921v2.58a.97.97,0,1,1-1.939,0v-2.58H1.939v30.9a.78.78,0,0,0,.779.779H34.982v-2.58a.97.97,0,1,1,1.939,0v2.58h1.148a.97.97,0,0,1,0,1.939H2.718A2.722,2.722,0,0,1,0,60.146V23.8a2.722,2.722,0,0,1,2.718-2.718H55.192A2.722,2.722,0,0,1,57.91,23.8Zm-1.939,0a.78.78,0,0,0-.779-.779H2.718a.78.78,0,0,0-.779.779V27.31H55.971Z" transform="translate(0 -21.079)" fill="#1685ce"/>
</svg>
