<svg xmlns="http://www.w3.org/2000/svg" width="58" height="57.997" viewBox="0 0 58 57.997">
  <g id="credit-card" transform="translate(0 -0.011)">
    <g id="Group_80" data-name="Group 80" transform="translate(0 0.011)">
      <g id="Group_79" data-name="Group 79" transform="translate(0 0)">
        <path id="Path_48" data-name="Path 48" d="M56.46,19.914,38.095,1.548a5.277,5.277,0,0,0-7.446,0L1.537,30.659a5.276,5.276,0,0,0,0,7.446L3.8,40.37h0l15.22,15.22H16.916a1.208,1.208,0,0,0,0,2.417H41.082a1.208,1.208,0,1,0,0-2.417H28.229L56.461,27.36A5.271,5.271,0,0,0,56.46,19.914Zm-1.709,5.737L25.64,54.762a2.828,2.828,0,0,1-2.01.829h-.009a2.827,2.827,0,0,1-2.009-.829L6.366,39.516,34.323,11.559A1.208,1.208,0,1,0,32.614,9.85L4.657,37.808,3.246,36.4a2.86,2.86,0,0,1,0-4.028L32.357,3.257a2.861,2.861,0,0,1,4.029,0l6.537,6.537L14.965,37.751a1.208,1.208,0,0,0,1.709,1.709L44.631,11.5l10.12,10.12A2.852,2.852,0,0,1,54.752,25.651Z" transform="translate(0 -0.011)" fill="#606060"/>
        <path id="Path_49" data-name="Path 49" d="M172.229,305.294a1.209,1.209,0,0,0-1.709,0l-9.508,9.508a1.208,1.208,0,0,0,1.709,1.709L172.229,307A1.208,1.208,0,0,0,172.229,305.294Z" transform="translate(-142.459 -270.398)" fill="#606060"/>
        <path id="Path_50" data-name="Path 50" d="M195.08,384.97l-3.9,3.9a1.208,1.208,0,1,0,1.709,1.709l3.9-3.9a1.208,1.208,0,1,0-1.709-1.709Z" transform="translate(-169.209 -341.048)" fill="#606060"/>
        <path id="Path_51" data-name="Path 51" d="M253.271,353.3l-.513.512a1.208,1.208,0,1,0,1.708,1.709l.513-.512a1.208,1.208,0,0,0-1.709-1.709Z" transform="translate(-223.812 -312.961)" fill="#606060"/>
        <path id="Path_52" data-name="Path 52" d="M350.8,161.023a1.208,1.208,0,0,0-1.709,0l-5.127,5.126a1.208,1.208,0,0,0,0,1.709l3.418,3.417a1.208,1.208,0,0,0,1.709,0l5.126-5.126a1.208,1.208,0,0,0,0-1.709Zm-2.563,7.69L346.527,167l3.418-3.418,1.709,1.709Z" transform="translate(-304.685 -142.469)" fill="#606060"/>
        <path id="Path_53" data-name="Path 53" d="M310.881,57.256a1.2,1.2,0,0,0,.854-.354l.513-.513a1.208,1.208,0,1,0-1.709-1.708l-.513.513a1.208,1.208,0,0,0,.855,2.063Z" transform="translate(-274.593 -48.174)" fill="#606060"/>
        <path id="Path_54" data-name="Path 54" d="M100.433,355.286l-.513.513a1.208,1.208,0,0,0,1.709,1.709l.513-.513a1.208,1.208,0,0,0-1.709-1.709Z" transform="translate(-88.287 -314.727)" fill="#606060"/>
      </g>
    </g>
  </g>
</svg>
