<svg xmlns="http://www.w3.org/2000/svg" width="7.667" height="13.691" viewBox="0 0 7.667 13.691">
  <g id="dots-menu" transform="translate(0 -2.471)">
    <g id="Group_122" data-name="Group 122" transform="translate(0 2.471)">
      <path id="Path_148" data-name="Path 148" d="M2.48,2.471A1.63,1.63,0,1,0,4.11,4.1,1.632,1.632,0,0,0,2.48,2.471Z" transform="translate(-0.807 -2.471)" fill="#cfcfcf"/>
      <path id="Path_149" data-name="Path 149" d="M107,2.471a1.63,1.63,0,1,0,1.63,1.63A1.632,1.632,0,0,0,107,2.471Z" transform="translate(-100.963 -2.471)" fill="#cfcfcf"/>
      <path id="Path_151" data-name="Path 151" d="M1.63,109.209A1.63,1.63,0,1,0,0,107.579,1.632,1.632,0,0,0,1.63,109.209Z" transform="translate(0 -100.726)" fill="#cfcfcf"/>
      <path id="Path_152" data-name="Path 152" d="M106.155,109.209a1.63,1.63,0,1,0-1.63-1.63A1.632,1.632,0,0,0,106.155,109.209Z" transform="translate(-100.162 -100.726)" fill="#cfcfcf"/>
      <path id="Path_154" data-name="Path 154" d="M2.369,209.108A1.63,1.63,0,1,0,4,210.738,1.632,1.632,0,0,0,2.369,209.108Z" transform="translate(-0.702 -198.677)" fill="#cfcfcf"/>
      <path id="Path_155" data-name="Path 155" d="M106.894,209.108a1.63,1.63,0,1,0,1.63,1.63A1.632,1.632,0,0,0,106.894,209.108Z" transform="translate(-100.863 -198.677)" fill="#cfcfcf"/>
    </g>
  </g>
</svg>
