<svg xmlns="http://www.w3.org/2000/svg" width="38.801" height="34" viewBox="0 0 38.801 34">
  <g id="drag" transform="translate(0 -18.375)">
    <path id="Path_264" data-name="Path 264" d="M75.16,203.144a1.31,1.31,0,1,0,1.31,1.31A1.31,1.31,0,0,0,75.16,203.144Z" transform="translate(-64.202 -160.63)" fill="#6d6d6d"/>
    <path id="Path_265" data-name="Path 265" d="M38.23,203.144a1.31,1.31,0,1,0,1.31,1.31A1.31,1.31,0,0,0,38.23,203.144Z" transform="translate(-32.097 -160.63)" fill="#6d6d6d"/>
    <path id="Path_266" data-name="Path 266" d="M112.09,203.144a1.31,1.31,0,1,0,1.31,1.31A1.309,1.309,0,0,0,112.09,203.144Z" transform="translate(-96.307 -160.63)" fill="#6d6d6d"/>
    <path id="Path_267" data-name="Path 267" d="M149.01,203.144a1.31,1.31,0,1,0,1.31,1.31A1.31,1.31,0,0,0,149.01,203.144Z" transform="translate(-128.404 -160.63)" fill="#6d6d6d"/>
    <path id="Path_268" data-name="Path 268" d="M1.31,203.144a1.31,1.31,0,1,0,.926.384A1.319,1.319,0,0,0,1.31,203.144Z" transform="translate(0 -160.63)" fill="#6d6d6d"/>
    <path id="Path_269" data-name="Path 269" d="M1.31,129.235a1.31,1.31,0,1,0,1.31,1.31A1.31,1.31,0,0,0,1.31,129.235Z" transform="translate(0 -96.377)" fill="#6d6d6d"/>
    <path id="Path_270" data-name="Path 270" d="M1.31,92.275a1.31,1.31,0,1,0,1.31,1.31A1.31,1.31,0,0,0,1.31,92.275Z" transform="translate(0 -64.245)" fill="#6d6d6d"/>
    <path id="Path_271" data-name="Path 271" d="M1.31,55.326a1.31,1.31,0,1,0,1.31,1.31A1.309,1.309,0,0,0,1.31,55.326Z" transform="translate(0 -32.124)" fill="#6d6d6d"/>
    <path id="Path_272" data-name="Path 272" d="M1.31,166.185a1.31,1.31,0,1,0,1.31,1.31A1.31,1.31,0,0,0,1.31,166.185Z" transform="translate(0 -128.5)" fill="#6d6d6d"/>
    <path id="Path_273" data-name="Path 273" d="M1.31,18.376a1.31,1.31,0,1,0,.926,2.236,1.309,1.309,0,0,0-.926-2.236Z" transform="translate(0 -0.001)" fill="#6d6d6d"/>
    <path id="Path_274" data-name="Path 274" d="M149.01,21a1.31,1.31,0,1,0-1.31-1.31A1.309,1.309,0,0,0,149.01,21Z" transform="translate(-128.404 -0.002)" fill="#6d6d6d"/>
    <path id="Path_275" data-name="Path 275" d="M185.939,21a1.31,1.31,0,1,0-1.31-1.31A1.31,1.31,0,0,0,185.939,21Z" transform="translate(-160.508 -0.002)" fill="#6d6d6d"/>
    <path id="Path_276" data-name="Path 276" d="M75.16,18.376a1.31,1.31,0,1,0,1.31,1.31A1.309,1.309,0,0,0,75.16,18.376Z" transform="translate(-64.202 -0.001)" fill="#6d6d6d"/>
    <path id="Path_277" data-name="Path 277" d="M38.23,18.376a1.31,1.31,0,1,0,1.31,1.31A1.309,1.309,0,0,0,38.23,18.376Z" transform="translate(-32.097 -0.001)" fill="#6d6d6d"/>
    <path id="Path_278" data-name="Path 278" d="M112.09,18.376a1.31,1.31,0,1,0,1.31,1.31A1.309,1.309,0,0,0,112.09,18.376Z" transform="translate(-96.307 -0.001)" fill="#6d6d6d"/>
    <path id="Path_279" data-name="Path 279" d="M222.868,21a1.31,1.31,0,1,0-.926-.384A1.319,1.319,0,0,0,222.868,21Z" transform="translate(-192.613)" fill="#6d6d6d"/>
    <path id="Path_280" data-name="Path 280" d="M222.869,94.9a1.31,1.31,0,1,0-1.31-1.31A1.309,1.309,0,0,0,222.869,94.9Z" transform="translate(-192.614 -64.246)" fill="#6d6d6d"/>
    <path id="Path_281" data-name="Path 281" d="M222.869,57.947a1.31,1.31,0,1,0-1.31-1.31A1.31,1.31,0,0,0,222.869,57.947Z" transform="translate(-192.614 -32.124)" fill="#6d6d6d"/>
    <path id="Path_282" data-name="Path 282" d="M222.869,131.856a1.31,1.31,0,1,0-1.31-1.31A1.31,1.31,0,0,0,222.869,131.856Z" transform="translate(-192.614 -96.378)" fill="#6d6d6d"/>
    <path id="Path_283" data-name="Path 283" d="M176.52,145.471l-15.356-5.618a1.31,1.31,0,0,0-1.683,1.672l5.559,15.52a1.31,1.31,0,0,0,1.208.868h.025a1.31,1.31,0,0,0,1.216-.822l2.085-5.192,4.384,4.432a1.31,1.31,0,1,0,1.863-1.843l-4.412-4.459,5.158-2.116a1.31,1.31,0,0,0-.047-2.443Zm-7.916,2.877a1.31,1.31,0,0,0-.718.724l-1.543,3.842-3.453-9.64,9.558,3.5Z" transform="translate(-138.579 -105.539)" fill="#6d6d6d"/>
  </g>
</svg>
