<svg xmlns="http://www.w3.org/2000/svg" xmlns:xlink="http://www.w3.org/1999/xlink" width="23" height="22" viewBox="0 0 23 22">
  <defs>
    <clipPath id="clip-path">
      <rect id="Rectangle_146" data-name="Rectangle 146" width="23" height="22" transform="translate(34 321)" fill="#fff" opacity="0.3"/>
    </clipPath>
  </defs>
  <g id="ease-icon" transform="translate(-34 -321)" clip-path="url(#clip-path)">
    <g id="puzzle" transform="translate(34.999 342.906) rotate(-90)">
      <path id="Path_97" data-name="Path 97" d="M20.371,11.591l-2.388,0a2.1,2.1,0,0,0,.159-1.754h.122a.7.7,0,0,0,.7-.7V1.757A1.758,1.758,0,0,0,17.21,0H1.756A1.758,1.758,0,0,0,0,1.757v15.1a1.758,1.758,0,0,0,1.756,1.756H9.132a.7.7,0,0,0,.7-.7l.013-2.222a2.064,2.064,0,0,0,.689.114A2.1,2.1,0,0,0,12.3,14.84c.177-.068.237-.084.231-.084a1.426,1.426,0,0,1,1.488,1.117,1.4,1.4,0,0,1-.293,1.177,1.434,1.434,0,0,1-1.541.436.728.728,0,0,0-.657.093.687.687,0,0,0-.291.565v2.227a.7.7,0,0,0,.7.7h7.376a1.758,1.758,0,0,0,1.756-1.756V12.293a.7.7,0,0,0-.7-.7ZM18.264,1.757V9.132h-.537a2.092,2.092,0,0,0-1.6-.7,2.158,2.158,0,0,0-.2-1.317,2.084,2.084,0,0,0-1.41-1.091,2.11,2.11,0,0,0-2.575,2.057,1.979,1.979,0,0,0,.3,1.054h-2.4L9.85,6.911a2.1,2.1,0,0,0,2.6-1.13,2.046,2.046,0,0,0,.176-.6A2.107,2.107,0,0,0,9.835,2.93V.7H17.21a1.054,1.054,0,0,1,1.054,1.054Zm-3.917,9.834H11.942a.7.7,0,0,0-.5.208,2.11,2.11,0,0,0-1.609-.089V9.835H12.24a.68.68,0,0,0,.6-.342.717.717,0,0,0-.005-.712,1.4,1.4,0,0,1,1.535-2.072,1.373,1.373,0,0,1,.931.719A1.429,1.429,0,0,1,15.345,8.6a2.092,2.092,0,0,0-1.3,1.938,1.98,1.98,0,0,0,.3,1.054ZM.7,1.757A1.054,1.054,0,0,1,1.756.7H9.132V2.93a.687.687,0,0,0,.29.565.724.724,0,0,0,.657.093,1.434,1.434,0,0,1,1.512.4,1.387,1.387,0,0,1,.347.808,1.462,1.462,0,0,1-.006.3,1.4,1.4,0,0,1-1.853,1.147.724.724,0,0,0-.656.093.687.687,0,0,0-.291.565v2.23l-2.4.012c.018-.032.03-.067.047-.1A2.106,2.106,0,0,0,5.334,6.013,2.2,2.2,0,0,0,5.1,5.981h0c-.059,0-.117-.008-.176-.008l-.032,0A2.168,2.168,0,0,0,4.595,6c-.032,0-.063.012-.094.018a2.14,2.14,0,0,0-.243.064c-.022.007-.044.012-.065.02a2.147,2.147,0,0,0-.278.127l-.072.042a2.063,2.063,0,0,0-.259.178l-.006,0a2.235,2.235,0,0,0-.173.16A2.1,2.1,0,0,0,2.81,8.079a1.968,1.968,0,0,0,.243.948c.019.035.035.07.055.105H.7ZM10.08,15.028a.722.722,0,0,0-.656.092.688.688,0,0,0-.292.566v2.227H1.756A1.054,1.054,0,0,1,.7,16.859V9.835H3.109a.715.715,0,0,0,.18-.023A.679.679,0,0,0,3.7,9.493a.709.709,0,0,0,.056-.569A.757.757,0,0,0,3.7,8.775a1.305,1.305,0,0,1-.081-.161A1.405,1.405,0,0,1,5.2,6.7a1.358,1.358,0,0,1,.2.054,1.4,1.4,0,0,1,.752,1.981c-.009.017-.015.035-.025.052a.681.681,0,0,0-.066.156s0,.007,0,.01,0,.021,0,.031a.68.68,0,0,0,.073.489.369.369,0,0,0,.028.035.71.71,0,0,0,.589.323H9.132V11.71a.688.688,0,0,0,.29.567.723.723,0,0,0,.659.091,1.442,1.442,0,0,1,1.159.114v1.743a.7.7,0,0,0,.234.516,1.4,1.4,0,0,1-.937.362,1.367,1.367,0,0,1-.457-.076Zm10.291,4.29a1.054,1.054,0,0,1-1.054,1.054H11.942l.017-2.221a2.107,2.107,0,1,0,.523-4.095,1.941,1.941,0,0,0-.54.169V12.293h2.406a.68.68,0,0,0,.6-.342.717.717,0,0,0-.005-.712A1.4,1.4,0,0,1,15.726,9.2h0a1.348,1.348,0,0,1,.426-.07,1.414,1.414,0,0,1,1.124.562,1.378,1.378,0,0,1,.281.843,1.405,1.405,0,0,1-.188.7.718.718,0,0,0,0,.714.68.68,0,0,0,.6.342h2.4Zm0,0" transform="translate(0 0)" fill="#fff" stroke="#fff" stroke-width="0.4"/>
    </g>
  </g>
</svg>
