<svg xmlns="http://www.w3.org/2000/svg" width="16.458" height="16.151" viewBox="0 0 16.458 16.151">
  <g id="edit_1_" data-name="edit (1)" transform="translate(-5.6 -6.9)">
    <g id="Group_56" data-name="Group 56" transform="translate(5.6 6.9)">
      <path id="Path_25" data-name="Path 25" d="M21.558,114.3H6.273a.575.575,0,0,0-.573.573.585.585,0,0,0,.573.573h15.3a.575.575,0,0,0,.573-.573A.588.588,0,0,0,21.558,114.3Z" transform="translate(-5.686 -99.294)" fill="#747474"/>
      <path id="Path_26" data-name="Path 26" d="M5.614,16.834,5.6,19.558a.592.592,0,0,0,.168.419.56.56,0,0,0,.405.168l2.71-.014a.56.56,0,0,0,.405-.168L18.65,10.6a.59.59,0,0,0,0-.824l-2.683-2.71a.59.59,0,0,0-.824,0L13.27,8.954,5.782,16.429A.622.622,0,0,0,5.614,16.834ZM15.562,8.3l1.886,1.886-1.062,1.062L14.5,9.359,15.562,8.3ZM6.774,17.085l6.9-6.9,1.886,1.886-6.9,6.888-1.9.014Z" transform="translate(-5.6 -6.9)" fill="#747474"/>
    </g>
  </g>
</svg>
