<svg xmlns="http://www.w3.org/2000/svg" width="18.488" height="23.855" viewBox="0 0 18.488 23.855">
  <g id="file_1_" data-name="file (1)" transform="translate(-57.6)">
    <g id="Group_120" data-name="Group 120" transform="translate(57.6)">
      <g id="Group_119" data-name="Group 119">
        <path id="Path_75" data-name="Path 75" d="M75.807,6.864,68.8.244A.9.9,0,0,0,68.186,0H58.495A.894.894,0,0,0,57.6.895V22.96a.894.894,0,0,0,.895.895h16.7a.894.894,0,0,0,.895-.895V7.514A.9.9,0,0,0,75.807,6.864ZM74.3,22.066H59.389V1.789H67.83L74.3,7.9Z" transform="translate(-57.6)" fill="#fff"/>
      </g>
    </g>
    <g id="Group_122" data-name="Group 122" transform="translate(61.476 14.611)">
      <g id="Group_121" data-name="Group 121">
        <path id="Path_76" data-name="Path 76" d="M150.342,313.6h-8.647a.895.895,0,1,0,0,1.789h8.647a.895.895,0,0,0,0-1.789Z" transform="translate(-140.8 -313.6)" fill="#fff"/>
      </g>
    </g>
    <g id="Group_124" data-name="Group 124" transform="translate(61.476 11.033)">
      <g id="Group_123" data-name="Group 123">
        <path id="Path_77" data-name="Path 77" d="M146.764,236.8h-5.069a.895.895,0,1,0,0,1.789h5.069a.895.895,0,1,0,0-1.789Z" transform="translate(-140.8 -236.8)" fill="#fff"/>
      </g>
    </g>
    <g id="Group_126" data-name="Group 126" transform="translate(61.476 18.189)">
      <g id="Group_125" data-name="Group 125">
        <path id="Path_78" data-name="Path 78" d="M150.342,390.4h-8.647a.895.895,0,1,0,0,1.789h8.647a.895.895,0,1,0,0-1.789Z" transform="translate(-140.8 -390.4)" fill="#fff"/>
      </g>
    </g>
    <g id="Group_128" data-name="Group 128" transform="translate(67.142 0.895)">
      <g id="Group_127" data-name="Group 127" transform="translate(0)">
        <path id="Path_79" data-name="Path 79" d="M264.189,25.164V19.2H262.4v6.858a.894.894,0,0,0,.895.895h7.156V25.164Z" transform="translate(-262.4 -19.2)" fill="#fff"/>
      </g>
    </g>
  </g>
</svg>
