<svg xmlns="http://www.w3.org/2000/svg" xmlns:xlink="http://www.w3.org/1999/xlink" width="22" height="22" viewBox="0 0 22 22">
  <defs>
    <clipPath id="clip-path">
      <rect id="Rectangle_142" data-name="Rectangle 142" width="22" height="22" transform="translate(35 514)" fill="#fff" opacity="0.3"/>
    </clipPath>
  </defs>
  <g id="fulltime-icon" transform="translate(-35 -514)" clip-path="url(#clip-path)">
    <g id="_24-hours" data-name="24-hours" transform="translate(22.378 514.13)">
      <path id="Path_105" data-name="Path 105" d="M33.45,10.857H30.855a.424.424,0,0,0-.424.424,6.691,6.691,0,0,1-6.259,6.669v-.7a.424.424,0,0,0-.848,0v.7a6.692,6.692,0,0,1-6.245-6.245h.686a.424.424,0,0,0,0-.848h-.686a6.693,6.693,0,0,1,6.245-6.246v.731a.43.43,0,0,0,.666.349L27.544,3.23a.43.43,0,0,0,0-.7L23.989.072a.43.43,0,0,0-.666.349v.743a10.022,10.022,0,0,0-3.825.923.424.424,0,0,0,.356.77A9.2,9.2,0,0,1,23.748,2a.424.424,0,0,0,.424-.424V1.23l2.386,1.651L24.172,4.533V4.174a.424.424,0,0,0-.424-.424,7.531,7.531,0,1,0,7.519,7.955h1.749a9.278,9.278,0,1,1-15.8-7.016.424.424,0,0,0-.6-.6,10.126,10.126,0,1,0,17.251,7.195A.424.424,0,0,0,33.45,10.857Z" transform="translate(0 0)" fill="#fff"/>
      <path id="Path_106" data-name="Path 106" d="M172.291,200.53a4.689,4.689,0,0,0-1.191,1.042c-.227.325-.494,1.592.181,1.592h2.457c.378,0,.382-.8-.007-.8h-1.964a.691.691,0,0,1,.23-.589c.368-.352.819-.607,1.219-.919a1.567,1.567,0,0,0,.253-2.5,1.649,1.649,0,0,0-2.474.557c-.151.36-.1,1.024.462.893.4-.093.278-.575.523-.821a.677.677,0,0,1,1.093.313C173.2,199.814,172.656,200.257,172.291,200.53Z" transform="translate(-150.56 -189.619)" fill="#fff"/>
      <path id="Path_107" data-name="Path 107" d="M264.916,203.5c.21.124.778.132.778-.221v-.868h.331c.381,0,.395-.8,0-.8h-.331v-.775c0-.417-.916-.417-.916,0v.775h-.824l1.352-2.7c.211-.422-.614-.647-.81-.234l-1.669,3.255a.316.316,0,0,0,.261.487h1.69v.868A.247.247,0,0,0,264.916,203.5Z" transform="translate(-238.593 -190.031)" fill="#fff"/>
      <path id="Path_108" data-name="Path 108" d="M242.436,357.32a.424.424,0,1,0,.229-.554A.428.428,0,0,0,242.436,357.32Z" transform="translate(-219.08 -341.605)" fill="#fff"/>
      <path id="Path_109" data-name="Path 109" d="M112.318,69.63a.424.424,0,1,0,.183-.531A.427.427,0,0,0,112.318,69.63Z" transform="translate(-94.48 -66.117)" fill="#fff"/>
    </g>
  </g>
</svg>
