<svg xmlns="http://www.w3.org/2000/svg" width="24.711" height="24.612" viewBox="0 0 24.711 24.612">
  <g id="heading-icon" transform="translate(0 -0.063)">
    <g id="Group_135" data-name="Group 135" transform="translate(0 0.063)">
      <path id="Path_185" data-name="Path 185" d="M14.678,24.674V23.227h.456a7.011,7.011,0,0,0,1.1-.083,2.183,2.183,0,0,0,.893-.346,1.822,1.822,0,0,0,.607-.749,3.1,3.1,0,0,0,.227-1.3V12.673H6.75v8.079a3.119,3.119,0,0,0,.227,1.3,1.806,1.806,0,0,0,.607.748,2.187,2.187,0,0,0,.9.346,6.976,6.976,0,0,0,1.095.084h.456v1.448H0V23.228H.438a6.931,6.931,0,0,0,1.1-.084,2.234,2.234,0,0,0,.9-.346,1.757,1.757,0,0,0,.607-.748,3.231,3.231,0,0,0,.217-1.3V3.851a2.8,2.8,0,0,0-.227-1.22,1.766,1.766,0,0,0-.616-.716,2.217,2.217,0,0,0-.9-.329A7.289,7.289,0,0,0,.438,1.511H0V.063H10.034V1.511H9.578A6.8,6.8,0,0,0,8.484,1.6a2.173,2.173,0,0,0-.9.345,1.818,1.818,0,0,0-.607.749,3.1,3.1,0,0,0-.227,1.3v6.968H17.961V3.986a3.116,3.116,0,0,0-.227-1.3,1.8,1.8,0,0,0-.607-.749,2.169,2.169,0,0,0-.893-.345,6.735,6.735,0,0,0-1.1-.085h-.456V.063H24.71V1.511h-.437a6.742,6.742,0,0,0-1.1.085,2.237,2.237,0,0,0-.9.345,1.738,1.738,0,0,0-.607.749,3.191,3.191,0,0,0-.219,1.3V20.92a2.8,2.8,0,0,0,.227,1.22,1.625,1.625,0,0,0,.615.7,2.368,2.368,0,0,0,.9.313,7.436,7.436,0,0,0,1.084.076h.439v1.448Z" transform="translate(0 -0.063)" fill="#1685ce"/>
    </g>
  </g>
</svg>
