<svg xmlns="http://www.w3.org/2000/svg" width="31.204" height="24.612" viewBox="0 0 31.204 24.612">
  <g id="img-icon" transform="translate(0 -33.331)">
    <path id="Path_186" data-name="Path 186" d="M30.709,33.331H.494A.494.494,0,0,0,0,33.825V57.449a.494.494,0,0,0,.494.494H30.709a.494.494,0,0,0,.494-.494V33.825A.494.494,0,0,0,30.709,33.331ZM28.237,54l-6.8-7.041a.2.2,0,0,0-.279-.011L16.443,51.1l-6.028-7.422a.2.2,0,0,0-.161-.075.2.2,0,0,0-.158.081l-7.13,9.567V36.3H28.237Z" transform="translate(0 0)" fill="#1685ce"/>
    <path id="Path_187" data-name="Path 187" d="M187.956,91.342a2.426,2.426,0,1,0-2.425-2.426A2.426,2.426,0,0,0,187.956,91.342Z" transform="translate(-167.186 -47.904)" fill="#1685ce"/>
  </g>
</svg>
