<svg xmlns="http://www.w3.org/2000/svg" width="28" height="28" viewBox="0 0 28 28">
  <path id="ios" d="M11.636,3A7.642,7.642,0,0,0,4,10.636V23.364A7.642,7.642,0,0,0,11.636,31H24.364A7.642,7.642,0,0,0,32,23.364V10.636A7.642,7.642,0,0,0,24.364,3ZM9.485,12.59a.736.736,0,1,1-.783.738.74.74,0,0,1,.783-.738Zm6.631.363c2.323,0,3.755,1.623,3.755,4.225s-1.419,4.232-3.755,4.232-3.774-1.629-3.774-4.232S13.8,12.953,16.116,12.953Zm8.228,0a2.635,2.635,0,0,1,2.908,2.316H26.031a1.542,1.542,0,0,0-1.705-1.209c-.993,0-1.648.471-1.648,1.2,0,.573.42.9,1.476,1.152l.885.216c1.661.388,2.342,1.056,2.342,2.272,0,1.546-1.2,2.514-3.112,2.514-1.788,0-2.991-.923-3.08-2.367h1.241c.108.764.859,1.254,1.935,1.254,1.005,0,1.744-.522,1.744-1.241,0-.611-.465-.98-1.534-1.235l-1.044-.248c-1.457-.344-2.125-1.05-2.125-2.234,0-1.438,1.177-2.393,2.94-2.393Zm-8.228,1.165c-1.521,0-2.488,1.19-2.488,3.061s.935,3.067,2.488,3.067c1.534,0,2.475-1.2,2.475-3.067S17.65,14.117,16.116,14.117ZM8.887,15.129h1.2v6.09h-1.2Z" transform="translate(-4 -3)" fill="#2491d9"/>
</svg>
