<svg xmlns="http://www.w3.org/2000/svg" width="47" height="47" viewBox="0 0 47 47">
  <g id="Group_92" data-name="Group 92" transform="translate(-376 -89)">
    <circle id="Ellipse_16" data-name="Ellipse 16" cx="23.5" cy="23.5" r="23.5" transform="translate(376 89)" fill="#08f"/>
    <path id="message_1_" data-name="message (1)" d="M18.242,0H3.378A3.382,3.382,0,0,0,0,3.378v9.754a3.382,3.382,0,0,0,3.378,3.378H9.459a.845.845,0,0,0,0-1.689H3.378a1.691,1.691,0,0,1-1.689-1.689V3.616L9.026,8.178a3.357,3.357,0,0,0,3.568,0l7.337-4.562V6.587a.845.845,0,1,0,1.689,0V3.378A3.382,3.382,0,0,0,18.242,0ZM11.7,6.744a1.678,1.678,0,0,1-1.784,0L2.351,2.039a1.681,1.681,0,0,1,1.027-.35H18.242a1.68,1.68,0,0,1,1.027.35ZM17.3,9.356l-4.637,4.626a.845.845,0,0,0-.212.352l-1.01,3.324a.844.844,0,0,0,1.034,1.059l3.409-.944a.843.843,0,0,0,.371-.216l4.627-4.618A2.534,2.534,0,0,0,17.3,9.356Zm-2.081,6.85L13.5,16.68l.5-1.652,3.129-3.122L18.325,13.1Zm4.469-4.461-.164.163-1.194-1.194.163-.163a.845.845,0,0,1,1.2,1.194Zm0,0" transform="translate(389.16 104.98)" fill="#fff"/>
  </g>
</svg>
