<svg xmlns="http://www.w3.org/2000/svg" width="22.767" height="17" viewBox="0 0 22.767 17">
  <g id="message_2_" data-name="message (2)" transform="translate(-7.533 -112.37)">
    <g id="Group_110" data-name="Group 110" transform="translate(7.533 112.37)">
      <g id="Group_109" data-name="Group 109" transform="translate(0 0)">
        <path id="Path_70" data-name="Path 70" d="M149.063,112.37H128.3a1,1,0,0,0-1,1v15a1,1,0,0,0,1,1h20.767a1,1,0,0,0,1-1v-15A1,1,0,0,0,149.063,112.37Zm-2.728,2-7.92,6.708-7.5-6.708Zm1.728,13H129.3V115.606l8.434,7.543a1,1,0,0,0,1.313.018l9.02-7.639V127.37Z" transform="translate(-127.296 -112.37)" fill="#fff"/>
      </g>
    </g>
  </g>
</svg>
