<svg xmlns="http://www.w3.org/2000/svg" width="24.661" height="23" viewBox="0 0 24.661 23">
  <g id="newspaper_1_" data-name="newspaper (1)" transform="translate(0 -17.247)">
    <g id="Group_84" data-name="Group 84" transform="translate(9.806 23.372)">
      <g id="Group_83" data-name="Group 83" transform="translate(0 0)">
        <path id="Path_57" data-name="Path 57" d="M210.684,144.4h-6.125a.977.977,0,0,0,0,1.955h6.125a.977.977,0,0,0,0-1.955Z" transform="translate(-203.582 -144.402)" fill="#fff"/>
      </g>
    </g>
    <g id="Group_86" data-name="Group 86" transform="translate(9.806 28.095)">
      <g id="Group_85" data-name="Group 85" transform="translate(0 0)">
        <path id="Path_58" data-name="Path 58" d="M213.03,242.473h-8.47a.977.977,0,0,0,0,1.955h8.47a.977.977,0,0,0,0-1.955Z" transform="translate(-203.582 -242.473)" fill="#fff"/>
      </g>
    </g>
    <g id="Group_88" data-name="Group 88" transform="translate(0 17.247)">
      <g id="Group_87" data-name="Group 87" transform="translate(0 0)">
        <path id="Path_59" data-name="Path 59" d="M23.684,17.247H6.385a.977.977,0,0,0-.977.977v9.22H3.681A3.686,3.686,0,0,0,0,31.125v5.44a3.682,3.682,0,0,0,4.171,3.649H20.3a4.37,4.37,0,0,0,4.365-4.365V18.224A.977.977,0,0,0,23.684,17.247ZM5.408,36.566A1.73,1.73,0,0,1,4.016,38.26H3.681v.033a1.729,1.729,0,0,1-1.727-1.727v-5.44A1.729,1.729,0,0,1,3.681,29.4H5.408v7.167Zm17.3-.717A2.443,2.443,0,0,1,20.3,38.26H6.949a3.657,3.657,0,0,0,.413-1.694V19.2H22.707Z" transform="translate(0 -17.247)" fill="#fff"/>
      </g>
    </g>
    <g id="Group_90" data-name="Group 90" transform="translate(9.806 32.526)">
      <g id="Group_89" data-name="Group 89">
        <path id="Path_60" data-name="Path 60" d="M210.684,334.464h-6.125a.977.977,0,1,0,0,1.955h6.125a.977.977,0,0,0,0-1.955Z" transform="translate(-203.582 -334.464)" fill="#fff"/>
      </g>
    </g>
  </g>
</svg>
