<svg id="left-arrow_2_" data-name="left-arrow (2)" xmlns="http://www.w3.org/2000/svg" width="21" height="16.174" viewBox="0 0 21 16.174">
  <g id="Group_25" data-name="Group 25" transform="translate(0 7.239)">
    <g id="Group_24" data-name="Group 24" transform="translate(0 0)">
      <path id="Path_19" data-name="Path 19" d="M.848,235.318h19.3a.848.848,0,0,1,0,1.7H.848a.848.848,0,0,1,0-1.7Z" transform="translate(0 -235.318)" fill="#fff"/>
    </g>
  </g>
  <g id="Group_27" data-name="Group 27" transform="translate(12.065 0)">
    <g id="Group_26" data-name="Group 26" transform="translate(0 0)">
      <path id="Path_20" data-name="Path 20" d="M6.888,66.917.249,60.278a.848.848,0,1,1,1.2-1.2l7.239,7.239a.848.848,0,0,1,0,1.2L1.448,74.756a.848.848,0,0,1-1.2-1.2Z" transform="translate(0 -58.83)" fill="#fff"/>
    </g>
  </g>
</svg>
