<svg xmlns="http://www.w3.org/2000/svg" xmlns:xlink="http://www.w3.org/1999/xlink" width="173" height="191.524" viewBox="0 0 173 191.524">
  <defs>
    <linearGradient id="linear-gradient" x1="0.494" y1="-1.491" x2="0.507" y2="2.883" gradientUnits="objectBoundingBox">
      <stop offset="0" stop-color="#7763f7"/>
      <stop offset="0.248" stop-color="#6f72f7"/>
      <stop offset="0.337" stop-color="#6c79f7"/>
      <stop offset="0.763" stop-color="#5a9ef7"/>
      <stop offset="1" stop-color="#50b5f8"/>
    </linearGradient>
    <linearGradient id="linear-gradient-2" x1="0.482" y1="-0.858" x2="0.499" y2="0.847" gradientUnits="objectBoundingBox">
      <stop offset="0" stop-color="#a6aeb2"/>
      <stop offset="1" stop-color="#dbdcdd"/>
    </linearGradient>
    <linearGradient id="linear-gradient-3" y1="0.5" x2="1" y2="0.5" gradientUnits="objectBoundingBox">
      <stop offset="0" stop-color="#e1e1e1"/>
      <stop offset="1" stop-color="#fff"/>
    </linearGradient>
    <linearGradient id="linear-gradient-4" x1="4.26" y1="0.479" x2="-8.824" y2="0.553" gradientUnits="objectBoundingBox">
      <stop offset="0" stop-color="#bccace"/>
      <stop offset="1" stop-color="#bccace" stop-opacity="0"/>
    </linearGradient>
    <linearGradient id="linear-gradient-5" x1="1.886" y1="1.974" x2="-0.776" y2="-0.856" gradientUnits="objectBoundingBox">
      <stop offset="0" stop-color="#fff"/>
      <stop offset="1" stop-color="#fff" stop-opacity="0"/>
    </linearGradient>
    <linearGradient id="linear-gradient-6" x1="1.405" y1="1.444" x2="0.036" y2="0.151" xlink:href="#linear-gradient-5"/>
    <linearGradient id="linear-gradient-7" y1="0.5" x2="1" y2="0.5" gradientUnits="objectBoundingBox">
      <stop offset="0" stop-color="#ef6f6f"/>
      <stop offset="1" stop-color="#ef6f6f" stop-opacity="0"/>
    </linearGradient>
    <linearGradient id="linear-gradient-8" y1="0.5" x2="1" y2="0.5" gradientUnits="objectBoundingBox">
      <stop offset="0" stop-color="#546aea"/>
      <stop offset="1" stop-color="#658bfd"/>
    </linearGradient>
    <linearGradient id="linear-gradient-9" y1="0.5" x2="1" y2="0.5" gradientUnits="objectBoundingBox">
      <stop offset="0" stop-color="#f4ba38"/>
      <stop offset="1" stop-color="#ffd349"/>
    </linearGradient>
    <linearGradient id="linear-gradient-10" x1="-1.806" y1="-1.848" x2="4.414" y2="4.317" xlink:href="#linear-gradient-9"/>
    <linearGradient id="linear-gradient-11" x1="-0.041" y1="0.495" x2="0.918" y2="0.495" xlink:href="#linear-gradient-9"/>
  </defs>
  <g id="Group_308" data-name="Group 308" transform="translate(-689 -437)">
    <g id="Group_307" data-name="Group 307" transform="translate(173.583 41.69)">
      <path id="Path_172" data-name="Path 172" d="M94.647,88.763h.015c-.344-.006-.687-.015-1.027-.027A7.12,7.12,0,0,1,94.647,88.763Z" transform="translate(421.782 306.583)" fill="url(#linear-gradient)"/>
      <g id="Group_303" data-name="Group 303" transform="translate(530.429 411.763)">
        <path id="Path_246" data-name="Path 246" d="M260.07,124.854v85.595a1.877,1.877,0,0,1-1.877,1.877h-136.2a2.434,2.434,0,0,1-2.434-2.433V124.854a7.71,7.71,0,0,1,7.717-7.717H252.354a7.711,7.711,0,0,1,7.717,7.717Z" transform="translate(-119.555 -117.137)" fill="#e3e1ff"/>
        <path id="Path_247" data-name="Path 247" d="M260.07,128.44V206.6H119.555V128.44a7.679,7.679,0,0,1,.517-2.781H259.554A7.679,7.679,0,0,1,260.07,128.44Z" transform="translate(-119.555 -120.723)" fill="#e3e1ff"/>
        <path id="Path_248" data-name="Path 248" d="M241.667,271.028a2.492,2.492,0,1,1-2.491-2.492A2.491,2.491,0,0,1,241.667,271.028Z" transform="translate(-168.849 -180.854)" fill="#1631a4"/>
        <circle id="Ellipse_7" data-name="Ellipse 7" cx="1.055" cy="1.055" r="1.055" transform="translate(52.131 3.161)" fill="#b4b7ff"/>
        <path id="Path_249" data-name="Path 249" d="M246.245,294.145l-41.273.034,4.224-1.943,2.45-10.741H239.69l2.273,10.874Z" transform="translate(-155.503 -186.308)" fill="url(#linear-gradient-2)"/>
        <rect id="Rectangle_265" data-name="Rectangle 265" width="41.392" height="0.676" rx="0.338" transform="translate(49.469 107.703)" fill="#e3e4e5"/>
        <line id="Line_103" data-name="Line 103" x2="30.157" transform="translate(58.085 4.187)" fill="none" stroke="#b4b7ff" stroke-linecap="round" stroke-miterlimit="10" stroke-width="2.642"/>
        <rect id="Rectangle_266" data-name="Rectangle 266" width="130.24" height="74.474" transform="translate(5.137 8.447)" fill="#fff"/>
        <rect id="Rectangle_267" data-name="Rectangle 267" width="130.257" height="3.886" transform="translate(5.12 8.447)" fill="#b4b7ff"/>
        <rect id="Rectangle_268" data-name="Rectangle 268" width="16.05" height="16.05" transform="translate(11.667 29.185)" fill="#e8e8e8"/>
        <rect id="Rectangle_269" data-name="Rectangle 269" width="16.05" height="16.05" transform="translate(31.856 29.185)" fill="#e8e8e8"/>
        <rect id="Rectangle_270" data-name="Rectangle 270" width="16.05" height="16.05" transform="translate(51.2 29.185)" fill="#e8e8e8"/>
        <rect id="Rectangle_271" data-name="Rectangle 271" width="16.05" height="16.05" transform="translate(11.667 51.064)" fill="#e8e8e8"/>
        <rect id="Rectangle_272" data-name="Rectangle 272" width="16.05" height="16.05" transform="translate(31.856 51.064)" fill="#e8e8e8"/>
        <rect id="Rectangle_273" data-name="Rectangle 273" width="16.05" height="16.05" transform="translate(51.2 51.064)" fill="#e8e8e8"/>
        <rect id="Rectangle_274" data-name="Rectangle 274" width="18.415" height="18.415" transform="translate(54.748 23.61)" fill="#b4b7ff"/>
        <path id="Path_252" data-name="Path 252" d="M163.691,253.326H140.883a1.183,1.183,0,0,1-1.183-1.183h0a1.183,1.183,0,0,1,1.183-1.183h22.808a1.182,1.182,0,0,1,1.183,1.183h0A1.183,1.183,0,0,1,163.691,253.326Z" transform="translate(-128.033 -173.457)" fill="#e8e8e8"/>
        <path id="Path_253" data-name="Path 253" d="M220.137,253.326H197.33a1.183,1.183,0,0,1-1.183-1.183h0a1.182,1.182,0,0,1,1.183-1.183h22.807a1.182,1.182,0,0,1,1.183,1.183h0A1.183,1.183,0,0,1,220.137,253.326Z" transform="translate(-151.789 -173.457)" fill="#e8e8e8"/>
        <path id="Path_254" data-name="Path 254" d="M315.528,253.326H292.721a1.183,1.183,0,0,1-1.183-1.183h0a1.182,1.182,0,0,1,1.183-1.183h22.807a1.182,1.182,0,0,1,1.183,1.183h0A1.183,1.183,0,0,1,315.528,253.326Z" transform="translate(-191.934 -173.457)" fill="#b4b7ff"/>
        <rect id="Rectangle_275" data-name="Rectangle 275" width="9.63" height="9.63" transform="translate(95.295 29.185)" fill="#e8e8e8"/>
        <rect id="Rectangle_276" data-name="Rectangle 276" width="9.63" height="9.63" transform="translate(95.295 40.842)" fill="#e8e8e8"/>
        <rect id="Rectangle_277" data-name="Rectangle 277" width="9.63" height="9.63" transform="translate(107.206 29.185)" fill="#e8e8e8"/>
        <rect id="Rectangle_278" data-name="Rectangle 278" width="9.63" height="9.63" transform="translate(107.206 40.842)" fill="#e8e8e8"/>
        <rect id="Rectangle_279" data-name="Rectangle 279" width="9.63" height="9.63" transform="translate(119.37 29.185)" fill="#e8e8e8"/>
        <rect id="Rectangle_280" data-name="Rectangle 280" width="9.63" height="9.63" transform="translate(119.37 40.842)" fill="#e8e8e8"/>
        <path id="Path_255" data-name="Path 255" d="M286.042,216.34H317.8v-3.886H286.042A1.943,1.943,0,0,0,284.1,214.4h0A1.943,1.943,0,0,0,286.042,216.34Z" transform="translate(-188.804 -157.251)" fill="#b4b7ff"/>
        <path id="Path_256" data-name="Path 256" d="M286.042,226.988H317.8V223.1H286.042a1.943,1.943,0,0,0-1.943,1.943h0A1.943,1.943,0,0,0,286.042,226.988Z" transform="translate(-188.804 -161.733)" fill="#b4b7ff"/>
        <path id="Rectangle_281" data-name="Rectangle 281" d="M1.943,0H18.837a0,0,0,0,1,0,0V3.886a0,0,0,0,1,0,0H1.943A1.943,1.943,0,0,1,0,1.943v0A1.943,1.943,0,0,1,1.943,0Z" transform="translate(110.163 67.536)" fill="#b4b7ff"/>
        <path id="Path_257" data-name="Path 257" d="M145.157,149.46a1.154,1.154,0,1,0-.213,1.79l1.07,1.086a.3.3,0,0,0,.432-.426l-1.089-1.105A1.156,1.156,0,0,0,145.157,149.46Zm-.246,1.4a.822.822,0,1,1,.009-1.162A.821.821,0,0,1,144.911,150.855Z" transform="translate(-129.498 -130.595)" fill="#fffdfd"/>
      </g>
      <ellipse id="Ellipse_10" data-name="Ellipse 10" cx="22.485" cy="5.048" rx="22.485" ry="5.048" transform="translate(643.446 541.863)" fill="#e3e1ff"/>
      <ellipse id="Ellipse_11" data-name="Ellipse 11" cx="22.027" cy="4.589" rx="22.027" ry="4.589" transform="translate(524.136 554.712)" fill="#e3e1ff"/>
      <g id="Group_304" data-name="Group 304" transform="translate(533.518 420.743)">
        <path id="Path_258" data-name="Path 258" d="M125.549,367.883a9.747,9.747,0,0,0-.642,3.7,8.876,8.876,0,0,0,4.315-.171c1.491-.434,5.03-.68,5.207-1.712.784-4.589-2,.342-5.421-2.191Z" transform="translate(-124.89 -231.485)" fill="#415050"/>
        <path id="Path_259" data-name="Path 259" d="M150.92,367.883a9.735,9.735,0,0,0-.642,3.7,8.876,8.876,0,0,0,4.315-.171c1.491-.434,5.468-.076,5.92-1.027,1.854-3.9-2.71-.342-6.134-2.876Z" transform="translate(-135.567 -231.485)" fill="#415050"/>
        <path id="Path_260" data-name="Path 260" d="M147.936,273.96c0,14.948-1.786,32.391-2.959,52.256q-.056.922-.108,1.849H140.66l-.031-1.849-.391-23.8-1.028-14.23-.4-5.6-.068.351-8.417,43.276-.359,1.849h-3.994q.011-.915.034-1.849a356.248,356.248,0,0,1,3.6-38.627l.642-11.917s9.191-3.732,15.089-2.671A7.108,7.108,0,0,1,147.936,273.96Z" transform="translate(-125.343 -191.632)" fill="#55696e"/>
        <path id="Path_261" data-name="Path 261" d="M140.457,286.537l-8.417,43.276-.359,1.849h-1.628c.451-6.472,2.519-17.567,4.374-22.909,1.341-3.863.714-8.493,1.712-14.383a76.855,76.855,0,0,1,3.852-13.012Z" transform="translate(-127.063 -195.229)" fill="#415050"/>
        <path id="Path_262" data-name="Path 262" d="M160.842,274.1c0,14.948-1.786,32.391-2.959,52.256q-.056.922-.108,1.849h-.99c-.576-6.609.621-18.668,1.525-29.21a134.384,134.384,0,0,0,0-17.4c-.137-2.531-.112-6.027-.068-8.458A7.109,7.109,0,0,1,160.842,274.1Z" transform="translate(-138.25 -191.77)" fill="#415050"/>
        <path id="Path_263" data-name="Path 263" d="M137.1,210.979s-2.639,2.475-4.066-.265-5.564-7.944-2.425-8.9a2.058,2.058,0,0,1,.071-2.328,2.03,2.03,0,0,0,.428,1.78s-1-2.877,3.566-3.356,4.494-2.671,4.494-2.671a3.454,3.454,0,0,1,.071,1.78s.428-.411.571-1.986a5.467,5.467,0,0,1,.356,4.657,7.975,7.975,0,0,0,.642-1.506s.071,3.515-1.355,4.977l.357,5.3Z" transform="translate(-126.815 -158.898)" fill="#3338a7"/>
        <path id="Path_264" data-name="Path 264" d="M144.384,216.4a.408.408,0,0,1-.068.089c-.451.464-1.858-.089-1.858-.089l.626,2.538.016.065-.844.16-.01,0-.37.07h0l-3.836.726.357-3.014c3.78-.411,3.78-4.931,3.78-4.931-1.283.411-2-2.945-1-2.877s1.569,2.466,1.569,2.466a9.539,9.539,0,0,0-.132-2.386c-.077-.46-.153-.764-.153-.764a3.6,3.6,0,0,0,1.426-1.781q.082.224.155.446C145.682,212.044,144.73,215.806,144.384,216.4Z" transform="translate(-130.423 -163.8)" fill="#fab9af"/>
        <path id="Path_265" data-name="Path 265" d="M145.246,222.1l.626,2.538c-.319.1-.611.177-.829.225l-.01,0c-.212.046-.35.067-.37.07h0l.336-4.719c.5,1.836,1.294,1.71,2.108,1.972C146.653,222.655,145.246,222.1,145.246,222.1Z" transform="translate(-133.21 -169.499)" fill="#fa968c"/>
        <path id="Path_266" data-name="Path 266" d="M147.253,207.125a5.18,5.18,0,0,1-1.428,2.1c-.077-.46-.153-.764-.153-.764a3.6,3.6,0,0,0,1.426-1.781Q147.18,206.9,147.253,207.125Z" transform="translate(-133.636 -163.8)" fill="#4864d8"/>
        <path id="Path_267" data-name="Path 267" d="M162.668,231.714s3-2.877,3.281-3.7,1-2.328,2-2.534l-.286,1.671a5.458,5.458,0,0,0,.927-.438c.142-.137.214-1.164.357-1.164s.5,1.575.142,1.986a4.127,4.127,0,0,1-2,1.327l-.6,2.08-1.333,2.895Z" transform="translate(-140.789 -171.714)" fill="#fa968c"/>
        <path id="Path_268" data-name="Path 268" d="M183.6,205.165a15.259,15.259,0,0,0,3.448.385c1.136-.123,4.558-2.962,5.153-3.883s-6.269.3-6.269.3Z" transform="translate(-149.599 -161.547)" fill="#27439e"/>
        <ellipse id="Ellipse_8" data-name="Ellipse 8" cx="18.615" cy="16.731" rx="18.615" ry="16.731" transform="matrix(0.313, -0.95, 0.95, 0.313, 17.063, 35.356)" fill="#27439e"/>
        <path id="Path_269" data-name="Path 269" d="M143.658,228.913l-.927-1.712a10.418,10.418,0,0,0-6.419,1.3v2.26Z" transform="translate(-129.697 -172.405)" fill="url(#linear-gradient-3)"/>
        <path id="Path_270" data-name="Path 270" d="M180.887,140.005c-9.018-2.049-18.322,4.376-20.78,14.351-1.909,7.748.875,15.359,6.44,19.331l.308,1.44a3.861,3.861,0,0,0,1.958,2.573q.546.3,1.1.536l-9.359,32.685,1.355,7.671L173.469,179.2c.138.015.277.028.416.038a4.081,4.081,0,0,0,2.717-.793l3.649-2.711h0a19.376,19.376,0,0,0,12.514-13.957C195.223,151.8,189.905,142.054,180.887,140.005Z" transform="translate(-139.458 -135.58)" fill="#3c59b5"/>
        <path id="Path_271" data-name="Path 271" d="M178.954,209.6c-.163,1.376-.186,2.564-.272,2.752a13.557,13.557,0,0,1-1.359,2.339,3.9,3.9,0,0,0-.458,1.371c-.247,1.591-.254,4.512-.511,6.24l-.676,4.558c-.071.477-.137.923-.2,1.314-.14.943-.233,1.576-.233,1.576l-3.96-2.106c.093-.419.192-.8.293-1.158q.05-.177.1-.348c.154-.505.314-.961.479-1.4.447-1.2.836-2.307,1.337-3.942a35.585,35.585,0,0,0,1.049-5.553,13.055,13.055,0,0,1-.621-4.994c.014-.657.03-1.211.285-1.027a1.724,1.724,0,0,1,.608,1.205s-.037,1.192.381,1.444c.083.05.077.052.512.027a4.259,4.259,0,0,0,1.923-.485l.773-2.431S179,209.2,178.954,209.6Z" transform="translate(-144.417 -164.771)" fill="#fab9af"/>
        <path id="Path_273" data-name="Path 273" d="M156.346,236.99a42.873,42.873,0,0,1-1.311,4.213,3.7,3.7,0,0,1-.722,1.3c-.785.616-7.382-3.6-7.382-3.6l.1,1.61v0l.782,12.607.116,1.876a25.385,25.385,0,0,1-17.689,2.123l.095-1.525.328-5.255.068-1.1v-.006l.065-1.037c0-.006,0-.012,0-.017s0-.033,0-.049l-.05-.044c-.394-.341-2.98-2.635-3.506-4.531-1.012-3.645-1.926-10.41-.714-11.232a18.581,18.581,0,0,1,2.235-1.286c6.221-3.065,15.027-3.86,15.953-2.892l.273.286c3.93,4.131,6.86,7.8,6.86,7.8l.714-1.506Z" transform="translate(-125.337 -172.675)" fill="#50d1dd"/>
        <path id="Path_275" data-name="Path 275" d="M133.474,252.1c-.074-.062-.209-.178-.385-.334a23.32,23.32,0,0,1-.8-2.869c-.071-.753,0-8.218,0-8.218A46.454,46.454,0,0,1,133.474,252.1Z" transform="translate(-127.989 -178.109)" fill="url(#linear-gradient-4)"/>
        <path id="Path_276" data-name="Path 276" d="M149.858,253.127q-1.068.507-2.1.914a25.848,25.848,0,0,1-15.382,1.56l.328-5.255q.052-.506.068-1.1v-.006q.015-.577.019-1.147a74.333,74.333,0,0,0-1.984-17.048c6.221-3.065,15.027-3.86,15.953-2.892l.273.286a65.44,65.44,0,0,1,1.381,6.849c.273,1.79.488,3.565.657,5.228v0Z" transform="translate(-127.382 -172.675)" fill="#25bbcc"/>
        <path id="Path_277" data-name="Path 277" d="M192.447,161.893q-.11.648-.27,1.3a16.551,16.551,0,0,1-10.626,11.9,13.491,13.491,0,0,1-4.937.662,13.1,13.1,0,0,1-2.182-.306,12.852,12.852,0,0,1-3.574-1.4c-5.457-3.137-8.318-10.1-6.569-17.195,2.1-8.518,10.043-14,17.744-12.255a12.865,12.865,0,0,1,4.018,1.663,14.548,14.548,0,0,1,6.427,10.1A16.967,16.967,0,0,1,192.447,161.893Z" transform="translate(-141.256 -137.538)" fill="#eff4f4"/>
        <path id="Path_278" data-name="Path 278" d="M177.909,201.557" transform="translate(-147.203 -161.645)" fill="none" stroke="#ff2a6e" stroke-miterlimit="10" stroke-width="0.377"/>
        <path id="Path_279" data-name="Path 279" d="M185.2,145.769q-.546-.177-1.118-.307c-7.7-1.75-15.645,3.737-17.744,12.255-1.792,7.273,1.256,14.4,6.98,17.423-7.016-2.266-11.021-10.188-9.025-18.284,2.1-8.518,10.044-14,17.744-12.255A12.865,12.865,0,0,1,185.2,145.769Z" transform="translate(-141.255 -137.538)" fill="#3c59b5"/>
        <path id="Path_280" data-name="Path 280" d="M170.242,239.67l1-1.712,3.994,1.712-.071,3.082Z" transform="translate(-143.977 -176.964)" fill="#25bbcc"/>
        <path id="Path_281" data-name="Path 281" d="M194.467,187.892l10.9-13.2q-.11.648-.27,1.3A16.551,16.551,0,0,1,194.467,187.892Z" transform="translate(-154.172 -150.34)" fill="url(#linear-gradient-5)"/>
        <path id="Path_282" data-name="Path 282" d="M197.624,157.814,181.76,177.2a13.1,13.1,0,0,1-2.182-.306A12.851,12.851,0,0,1,176,175.5L191.2,147.709A14.548,14.548,0,0,1,197.624,157.814Z" transform="translate(-146.401 -138.983)" fill="url(#linear-gradient-6)"/>
      </g>
      <g id="Group_305" data-name="Group 305" transform="translate(648.569 460.617)">
        <path id="Path_284" data-name="Path 284" d="M342.277,213.025a10.933,10.933,0,0,1,.138-4.252c.493-3.082.37-4.869-1.356-4.5a2.341,2.341,0,0,0-2.774-2.774s1.541.185,1.541,1.356c0,0-1.109-1.849-4.068-.123s-4.685,1.233-4.685,1.233a3.233,3.233,0,0,0,1.356.616,5.338,5.338,0,0,1-2.712-.185s1.6,2.465,3.821,2.527a3.319,3.319,0,0,1-2.034-.247,5.248,5.248,0,0,0,3.791.878l4.716,3.807Z" transform="translate(-326.143 -201.491)" fill="#3338a7"/>
        <path id="Path_285" data-name="Path 285" d="M346.779,218a5.947,5.947,0,0,1-4.392,3.095l-.269-2.208-.178-1.469a6.282,6.282,0,0,1-.564.4,4.042,4.042,0,0,1-1.963.712c-1.075,0-2.2-6.49-2.379-7.557l-.025-.148a6.133,6.133,0,0,0,3.3-1.017,4.25,4.25,0,0,0,.308,1.052,4.882,4.882,0,0,0,2.157,2.277c-.37-1.294.431-2.527.986-1.664s-.246,2.157-.246,2.157a17.1,17.1,0,0,0,2.958,4.191C346.574,217.878,346.677,217.939,346.779,218Z" transform="translate(-329.211 -204.99)" fill="#fab9af"/>
        <path id="Path_286" data-name="Path 286" d="M356.462,348.027s-10.832.279-11.341-.185c-.639-.581,6.406-2.71,7.482-3.05a7.865,7.865,0,0,0,3.265-.031C356.585,345.623,356.462,348.027,356.462,348.027Z" transform="translate(-332.608 -261.786)" fill="#415050"/>
        <path id="Path_287" data-name="Path 287" d="M357.667,310.439v.072a10.488,10.488,0,0,1-1.629.1c-.731-.006-1.362-.066-1.628-.094l-.01-.139s-1.726-16.519-2.4-20.464-.924-15.1-2.589-21.081l8.362-1.323,4.033-.639s-2.163,14.043-3.087,19.9S360.132,294.413,357.667,310.439Z" transform="translate(-334.429 -229.006)" fill="#55696e"/>
        <path id="Path_288" data-name="Path 288" d="M361.324,343.693a7.866,7.866,0,0,1-3.265.031l.1-.031-.113-1.464a14.152,14.152,0,0,0,3.257-.005v1.407S361.311,343.652,361.324,343.693Z" transform="translate(-338.065 -260.718)" fill="#fab9af"/>
        <path id="Path_289" data-name="Path 289" d="M362.418,310.439v.072a10.488,10.488,0,0,1-1.629.1c2.05-4.683,1.792-14.817.95-17.184-.986-2.773-1.541-4.13-.431-8.753s.8-16.026.8-16.026a5.625,5.625,0,0,1,.41-1.138l4.033-.639s-2.163,14.043-3.087,19.9S364.883,294.413,362.418,310.439Z" transform="translate(-339.18 -229.006)" fill="#415050"/>
        <rect id="Rectangle_282" data-name="Rectangle 282" width="0.707" height="2.95" transform="translate(1.179 10.399) rotate(-5.66)" fill="#1b4266"/>
        <rect id="Rectangle_283" data-name="Rectangle 283" width="1.202" height="6.162" rx="0.601" transform="translate(0.387 5.273) rotate(-5.66)" fill="#27439e"/>
        <path id="Path_290" data-name="Path 290" d="M335.174,236.875a7.084,7.084,0,0,1-.719.6,22.3,22.3,0,0,1-5.2,3.012,1.353,1.353,0,0,1-1.088.031c-1.121-.791-2.164-8.252-2.581-11.618l-.008-.063c-.035-.284-.066-.537-.092-.753v-.012c-.06-.508-.092-.806-.092-.806l-.014,0a1.7,1.7,0,0,1-1.28-.25c-.678-.431.431-4.068.431-4.068s-.986,0-.986-.37,2.774-1.418,2.958-.863.493,5.178,1.664,8.013c.346.837.654,1.6.917,2.27l0,0,0,.007,0,.012c.621,1.576.985,2.577.985,2.577a5.73,5.73,0,0,0,.986-.448,15.56,15.56,0,0,0,3.565-3.078l.314,3.356Z" transform="translate(-323.545 -209.936)" fill="#fab9af"/>
        <path id="Path_294" data-name="Path 294" d="M345.824,239.246a8.9,8.9,0,0,1-2.835,2.836s-.8-2.9-2.1-6.411c0,0,3.2-3.082,3.636-5.856Z" transform="translate(-330.846 -213.411)" fill="#50d1dd"/>
        <path id="Path_295" data-name="Path 295" d="M360.722,248.306c-4.191,4.747-15.04,4.808-15.04,4.808a60.375,60.375,0,0,0,1.11-17.2c-.616-5.054-.74-8.753-.74-8.753l-.014-.114a5.947,5.947,0,0,0,4.392-3.095c3.9,2.35,6.325,6.449,7.829,10.622a41.936,41.936,0,0,1,1.923,7.766A44.424,44.424,0,0,1,360.722,248.306Z" transform="translate(-332.861 -210.945)" fill="#25bbcc"/>
        <path id="Path_296" data-name="Path 296" d="M345.291,223.232l-.178-1.469a6.277,6.277,0,0,1-.564.4,5.581,5.581,0,0,0,1.519-2.031A5.95,5.95,0,0,1,345.291,223.232Z" transform="translate(-332.385 -209.335)" fill="#fa968c"/>
        <path id="Path_298" data-name="Path 298" d="M364.214,247.8l-6.641,5.747-1.849-1.664s3.328-8.013,3.02-9.184-3.481-5.772-3.481-5.772c2.542.06,5.006,1.468,7.027,3.107A41.941,41.941,0,0,1,364.214,247.8Z" transform="translate(-336.894 -216.406)" fill="#25bbcc"/>
        <path id="Path_299" data-name="Path 299" d="M360.584,247.409c-2.712,3.636-3.636,5.178-3.636,5.178s.02.017.055.05a4.288,4.288,0,0,1,.6.7c.224.341.345.712.019.914-1.294.8-1.418,1.356-2.466,1.233-.556-.065-.836-.192-1-.429h0a2.524,2.524,0,0,1-.291-.926c-.123-.616.493-1.417,1.294-3.143s2.281-4.5,3.39-7.4a29.073,29.073,0,0,1,1.319-3.013l.01-.019.011-.021c.027-.052.053-.1.078-.147.009-.016.017-.03.024-.045.08-.147.147-.262.2-.35l.028-.045.017-.027.013-.021,0-.005.013-.022.025-.038c.031-.047.046-.069.046-.069l-1.109-.678h0l1.108-1.92,1.418-2.455a23.6,23.6,0,0,1,3.3,3.348c.035.058.065.113.09.166C365.638,239.272,363.3,243.772,360.584,247.409Z" transform="translate(-336.299 -215.471)" fill="#fab9af"/>
        <path id="Path_301" data-name="Path 301" d="M357.849,267.785c-1.294.8-1.418,1.356-2.466,1.233-.556-.065-.836-.192-1-.429h0a2.105,2.105,0,0,0,2.481-.558c.254-.339.61-.752.967-1.161C358.054,267.212,358.175,267.583,357.849,267.785Z" transform="translate(-336.522 -229.006)" fill="url(#linear-gradient-7)"/>
        <path id="Path_303" data-name="Path 303" d="M361.446,231.616s-5.609-4.376-7.89-3.575-1.6,3.514,0,4.808a47.312,47.312,0,0,1,4.931,4.438S361.446,233.959,361.446,231.616Z" transform="translate(-335.558 -212.623)" fill="#50d1dd"/>
      </g>
      <ellipse id="Ellipse_9" data-name="Ellipse 9" cx="22.485" cy="4.589" rx="22.485" ry="4.589" transform="translate(581.038 577.656)" fill="#e3e1ff"/>
      <g id="Group_306" data-name="Group 306" transform="translate(590.44 471.375)">
        <path id="Path_304" data-name="Path 304" d="M254.616,408.144h-6.864c-.294,0-.163-2.119.094-3.949.879,1.2,1.541.9,2.069.282a4.75,4.75,0,0,1,1.12-.841.2.2,0,0,1,.289.206,2.96,2.96,0,0,0,.1,1.576c.188.376,5.172,1.41,5.642,1.316S258.471,408.144,254.616,408.144Z" transform="translate(-233.448 -297.311)" fill="#cd5014"/>
        <path id="Path_305" data-name="Path 305" d="M251.319,403.072a3.248,3.248,0,0,0-1.214.8c-.528.616-1.19,1.106-2.069-.094a15.05,15.05,0,0,1,.094-1.6h3.1S251.266,402.583,251.319,403.072Z" transform="translate(-233.638 -296.712)" fill="#fa968c"/>
        <path id="Path_306" data-name="Path 306" d="M236.438,408.144h-6.864c-.294,0-.163-2.119.094-3.949.878,1.2,1.54.9,2.068.282a4.754,4.754,0,0,1,1.121-.841.2.2,0,0,1,.288.206,2.961,2.961,0,0,0,.1,1.576c.188.376,5.172,1.41,5.642,1.316S240.293,408.144,236.438,408.144Z" transform="translate(-225.797 -297.311)" fill="#a03c19"/>
        <path id="Path_307" data-name="Path 307" d="M233.142,402.674a3.25,3.25,0,0,0-1.214.805c-.528.616-1.19,1.106-2.068-.094.071-.506.113-1.739.236-2.146l2.961.547S233.089,402.185,233.142,402.674Z" transform="translate(-225.988 -296.314)" fill="#fa968c"/>
        <path id="Path_308" data-name="Path 308" d="M265.176,236.848l-.976,10.03-2.915,9.591L261,253.931l-8.745-1.223,2.275-16.835a.593.593,0,0,1,.639-.511l9.466.838A.593.593,0,0,1,265.176,236.848Z" transform="translate(-235.415 -226.503)" fill="#3c59b5"/>
        <path id="Path_309" data-name="Path 309" d="M264.643,238.278l-.658,9.289-2.169,8.421-.21-2.229-6.507-1.073,1.74-14.972Z" transform="translate(-236.61 -227.494)" fill="#fff"/>
        <path id="Path_310" data-name="Path 310" d="M266.538,234.635l-.057.578-.035.345a.384.384,0,0,1-.419.343l-5.039-.5a.383.383,0,0,1-.343-.419l.028-.282.064-.641a.384.384,0,0,1,.419-.343l5.039.5A.383.383,0,0,1,266.538,234.635Z" transform="translate(-238.943 -225.81)" fill="none" stroke="#6081f7" stroke-miterlimit="10" stroke-width="0.377"/>
        <path id="Path_311" data-name="Path 311" d="M266.48,235.928l-.035.345a.384.384,0,0,1-.419.343l-5.039-.5a.383.383,0,0,1-.343-.419l.028-.282C260.739,235.378,266.48,235.928,266.48,235.928Z" transform="translate(-238.943 -226.524)" fill="#6081f7"/>
        <path id="Path_312" data-name="Path 312" d="M254.3,250.2s.846-.941,1.034-1.223a2.79,2.79,0,0,0,.188-1.5c-.094-.282-.8,1.04-1.153,1.272a6.4,6.4,0,0,1-1.574.421l.685-4.016s-.591.349-.685.725-.941,2.257-1.223,3.1a4.413,4.413,0,0,0-.094,1.881Z" transform="translate(-235.062 -230.623)" fill="url(#linear-gradient-8)"/>
        <path id="Path_313" data-name="Path 313" d="M245.285,230.545a46.046,46.046,0,0,1-.057,6.266,10.307,10.307,0,0,1-.627,2.924.731.731,0,0,1-.5.461,8.463,8.463,0,0,1-1.6,0s-.052.249-.1.617a5.339,5.339,0,0,0,.1,2.58c.47.941-5.83.564-5.83.564s.282-3.761.47-5.641,2.821-9.121,2.821-9.121l3.166-.722,2.194-.5s.948.733-.043,2.435C245.278,230.407,245.281,230.455,245.285,230.545Z" transform="translate(-228.855 -223.394)" fill="#fab9af"/>
        <path id="Path_316" data-name="Path 316" d="M272.259,246.764c-.094.846-1.6,3.2-1.5,4.984s-.478,7.334-.478,7.334l-2.011-1.38-1.772-1.217s1.724-4.455,1.629-5.4-1.279-2.44-1.222-3.009c0-.028.005-.057.008-.086.08-.911,0-1.809.368-2.265s.376,1.41,1.034,2.445c.407.639,1.5,0,2.163-.94a4.281,4.281,0,0,0,.376-2.633l.094-1.693S272.353,245.918,272.259,246.764Z" transform="translate(-241.405 -229.68)" fill="#fab9af"/>
        <path id="Path_318" data-name="Path 318" d="M236.58,315.623l-4.912,43.6H228.6s-3.005-14.182-1.689-21.416A76.422,76.422,0,0,0,227.6,318c-.412-4.368-1.1-11.094,2.284-16.919S236.58,315.623,236.58,315.623Z" transform="translate(-224.606 -253.722)" fill="#0073aa"/>
        <path id="Path_319" data-name="Path 319" d="M250.847,302.846l-3.573,56.231h-3.1s-3.291-13.54-2.445-20.311.282-10.719-.94-18.994-2.915-10.813-1.787-18.806C239.5,297.4,250.847,302.846,250.847,302.846Z" transform="translate(-229.678 -253.603)" fill="#0091c8"/>
        <path id="Path_320" data-name="Path 320" d="M252.242,262.039c-.394,2.52-1.249,7.677-2.511,9.563a1.533,1.533,0,0,1-.78.686c-1.693.47-3.949-3.855-3.949-3.855.094,5.924-.658,14.481-.658,14.481a19.209,19.209,0,0,1-4.485,1.812,31.576,31.576,0,0,1-13.193.351l.881-7.93,0-.024.15-1.355a2.212,2.212,0,0,1-1.546.991,4.408,4.408,0,0,1-1.463.043c-2.351-.282-1.363-17.255-.987-18.383s2.069-2.727,7.052-4.514,12.583-.869,13.587-.517c1.241.435,2.42,4,3.078,6.373.176.632.314,1.179.407,1.561l0,.008c.087.357.134.568.134.568l.008-.029.321-1.334.072.009C251.317,260.928,252.242,262.039,252.242,262.039Z" transform="translate(-223.175 -233.859)" fill="#ff8c46"/>
        <path id="Path_321" data-name="Path 321" d="M265.04,264.791c.176.632.314,1.179.407,1.561Z" transform="translate(-240.794 -238.889)" fill="url(#linear-gradient-9)"/>
        <path id="Path_322" data-name="Path 322" d="M267.064,271.581l-1.074-4.119.321-1.334.072.009Z" transform="translate(-241.194 -239.452)" fill="url(#linear-gradient-10)"/>
        <path id="Path_324" data-name="Path 324" d="M230.724,294.793l0-.024Z" transform="translate(-226.352 -251.506)" fill="url(#linear-gradient-11)"/>
        <path id="Path_325" data-name="Path 325" d="M229.715,282.717l.15-1.355a2.211,2.211,0,0,1-1.546.991,14.316,14.316,0,0,0,.606-4.94,14.606,14.606,0,0,1,0-6.394,11.83,11.83,0,0,0,0-4.886C231.212,270.891,229.792,282.119,229.715,282.717Z" transform="translate(-225.34 -239.454)" fill="#ff7019"/>
        <path id="Path_326" data-name="Path 326" d="M240.015,228.03a6.434,6.434,0,0,1-.47,4.8s-.094-4.043-1.41-3.667-.813,3.079-.282,3.291c.47.188.94-.282.94-.282s-.188,5.924-3.573,5.736-4.134-7.447-4.228-9.515,1.3-4.759,2.687-3.992c0,0-.337-.863.921-2.226,1.129-1.223,3.854-3.793,7.907-.461,3.455,2.84.424,6.791.424,6.791a10.969,10.969,0,0,0-.282-2.915A5.333,5.333,0,0,1,240.015,228.03Z" transform="translate(-226.463 -220.067)" fill="#3338a7"/>
        <path id="Path_327" data-name="Path 327" d="M190.445,243.113a2.72,2.72,0,0,1-1.006-2.349,6.438,6.438,0,0,0-2.481-4.917,4.3,4.3,0,0,1-1.333-3.66l.2-1.761h-5.953a4.587,4.587,0,0,1-1.859,3.715,9.106,9.106,0,0,0-3.1,4.081c-1.624,4.188-.044,8.726,3.522,10.376-.94,3.96.814,7.954,4.287,9.3,3.841,1.49,8.318-.82,10-5.158A8.294,8.294,0,0,0,190.445,243.113Z" transform="translate(-171.755 -223.559)" fill="#3338a7"/>
      </g>
    </g>
  </g>
</svg>
