<svg xmlns="http://www.w3.org/2000/svg" width="35" height="46.701" viewBox="0 0 35 46.701">
  <g id="notepad" transform="translate(4 0)">
    <path id="Path_91" data-name="Path 91" d="M25.871,3.171H18.366a5.318,5.318,0,0,0-9.731,0H1.129A5.135,5.135,0,0,0-4,8.3V41.572A5.135,5.135,0,0,0,1.129,46.7H25.871A5.135,5.135,0,0,0,31,41.572V8.3a5.135,5.135,0,0,0-5.129-5.129ZM9.479,5.506a1.167,1.167,0,0,0,1.14-.917,2.968,2.968,0,0,1,5.761,0,1.167,1.167,0,0,0,1.141.917h2.315V6.531a2.8,2.8,0,0,1-2.794,2.794H9.958A2.8,2.8,0,0,1,7.164,6.531V5.506ZM28.665,41.572a2.8,2.8,0,0,1-2.794,2.794H1.129a2.8,2.8,0,0,1-2.794-2.794V8.3A2.8,2.8,0,0,1,1.129,5.506h3.7V6.53a5.135,5.135,0,0,0,5.129,5.129h7.085A5.135,5.135,0,0,0,22.172,6.53V5.506h3.7A2.8,2.8,0,0,1,28.665,8.3Zm0,0" fill="#606060"/>
    <path id="Path_92" data-name="Path 92" d="M113.8,227.772l-7.665,7.484-3.892-3.8a1.167,1.167,0,0,0-1.647,1.655l.016.015,4.707,4.6a1.168,1.168,0,0,0,1.632,0l8.48-8.28a1.167,1.167,0,0,0-1.631-1.671Zm0,0" transform="translate(-94.521 -206.2)" fill="#606060"/>
  </g>
</svg>
