<svg xmlns="http://www.w3.org/2000/svg" width="15.696" height="20.219" viewBox="0 0 15.696 20.219">
  <path id="notification_1_" data-name="notification (1)" d="M13.975,14.449V8.413A6.237,6.237,0,0,0,9.557,2.455c0-.011,0-.022,0-.034V1.915A1.867,1.867,0,0,0,7.748,0a1.867,1.867,0,0,0-1.81,1.915v.506c0,.011,0,.023,0,.034A6.237,6.237,0,0,0,1.522,8.413v6.036A1.792,1.792,0,0,0,0,16.218v.935a.728.728,0,0,0,.727.727h4.36a2.724,2.724,0,0,0,5.321,0h4.36a.728.728,0,0,0,.727-.727v-.935a1.792,1.792,0,0,0-1.522-1.769ZM7.111,1.915a.7.7,0,0,1,.637-.742.7.7,0,0,1,.637.742v.3a6.286,6.286,0,0,0-1.274,0Zm-4.416,6.5a5.053,5.053,0,1,1,10.107,0v6.016H2.695ZM7.748,18.846a1.554,1.554,0,0,1-1.437-.965H9.185A1.554,1.554,0,0,1,7.748,18.846Zm6.575-2.138H1.173v-.49a.617.617,0,0,1,.616-.616H13.707a.617.617,0,0,1,.616.616Zm0,0" transform="translate(0.1 0.1)" fill="#777" stroke="#707070" stroke-width="0.2"/>
</svg>
