<svg id="Group_557" data-name="Group 557" xmlns="http://www.w3.org/2000/svg" width="21.25" height="28.333" viewBox="0 0 21.25 28.333">
  <g id="Group_556" data-name="Group 556">
    <path id="Path_108" data-name="Path 108" d="M85.077,6.076l-5.9-5.9A.59.59,0,0,0,78.757,0h-12.4A2.363,2.363,0,0,0,64,2.361V25.972a2.363,2.363,0,0,0,2.361,2.361H82.889a2.363,2.363,0,0,0,2.361-2.361V6.493A.59.59,0,0,0,85.077,6.076Zm-5.73-4.06L83.235,5.9H80.528a1.182,1.182,0,0,1-1.181-1.181Zm4.722,23.957a1.182,1.182,0,0,1-1.181,1.181H66.361a1.182,1.182,0,0,1-1.181-1.181V2.361a1.182,1.182,0,0,1,1.181-1.181H78.167V4.722a2.363,2.363,0,0,0,2.361,2.361h3.542Z" transform="translate(-64 0)" fill="#828282"/>
    <path id="Path_109" data-name="Path 109" d="M138.093,178.55a17.107,17.107,0,0,1-1.412-1.218c-.45-.45-.85-.885-1.2-1.3a13.216,13.216,0,0,0,.781-3c0-1.959-.708-2.361-1.771-2.361-.808,0-1.771.42-1.771,2.418a5.66,5.66,0,0,0,1.439,3.193c-.234.714-.509,1.538-.818,2.467-.149.446-.31.858-.481,1.24-.139.062-.274.125-.4.19-.469.235-.915.446-1.328.642-1.885.892-3.13,1.483-3.13,2.648,0,.846.919,1.37,1.771,1.37,1.1,0,2.755-1.466,3.965-3.935a23.485,23.485,0,0,1,4.052-1.093,6.772,6.772,0,0,0,2.608,1.487c1.464,0,1.771-.846,1.771-1.556,0-1.4-1.594-1.4-2.361-1.4A13.99,13.99,0,0,0,138.093,178.55Zm-8.322,5.1a.933.933,0,0,1-.59-.19c0-.419,1.248-1.01,2.455-1.582l.233-.11C130.983,183.056,130.106,183.652,129.771,183.652Zm4.132-10.568c0-1.237.384-1.237.59-1.237.417,0,.59,0,.59,1.181a9.465,9.465,0,0,1-.47,1.843A3.627,3.627,0,0,1,133.9,173.084Zm.452,6.344q.055-.154.107-.311c.219-.657.416-1.247.592-1.779q.367.4.792.829c.111.111.385.36.751.672C135.87,179,135.1,179.193,134.355,179.428Zm6.631.307c0,.265,0,.375-.548.379a4.35,4.35,0,0,1-.992-.566c.167-.018.289-.028.359-.028C140.678,179.52,140.925,179.606,140.986,179.735Z" transform="translate(-124.458 -161.222)" fill="#828282"/>
  </g>
</svg>
