<svg xmlns="http://www.w3.org/2000/svg" width="16.5" height="22" viewBox="0 0 16.5 22">
  <g id="pdf_2_" data-name="pdf (2)" transform="translate(-64)">
    <g id="Group_129" data-name="Group 129" transform="translate(64)">
      <g id="Group_128" data-name="Group 128">
        <path id="Path_160" data-name="Path 160" d="M80.366,4.718,75.782.134A.458.458,0,0,0,75.458,0H65.833A1.835,1.835,0,0,0,64,1.833V20.167A1.835,1.835,0,0,0,65.833,22H78.667A1.835,1.835,0,0,0,80.5,20.167V5.042A.458.458,0,0,0,80.366,4.718ZM75.917,1.565l3.019,3.019h-2.1a.918.918,0,0,1-.917-.917Zm3.667,18.6a.918.918,0,0,1-.917.917H65.833a.918.918,0,0,1-.917-.917V1.833a.918.918,0,0,1,.917-.917H75v2.75A1.835,1.835,0,0,0,76.833,5.5h2.75Z" transform="translate(-64)" fill="#717171"/>
        <path id="Path_161" data-name="Path 161" d="M135.837,176.788a13.28,13.28,0,0,1-1.1-.946c-.349-.349-.66-.687-.931-1.01a10.262,10.262,0,0,0,.607-2.333c0-1.521-.55-1.833-1.375-1.833-.627,0-1.375.326-1.375,1.877a4.395,4.395,0,0,0,1.117,2.479c-.182.555-.4,1.194-.635,1.915-.115.346-.241.666-.373.963-.108.048-.213.1-.314.147-.364.182-.71.346-1.031.5-1.464.693-2.43,1.151-2.43,2.056,0,.657.714,1.064,1.375,1.064.852,0,2.139-1.138,3.079-3.056a18.234,18.234,0,0,1,3.146-.849,5.258,5.258,0,0,0,2.025,1.154c1.136,0,1.375-.657,1.375-1.208,0-1.084-1.238-1.084-1.833-1.084A10.859,10.859,0,0,0,135.837,176.788Zm-6.462,3.962a.724.724,0,0,1-.458-.147c0-.325.969-.784,1.906-1.228l.181-.086C130.316,180.287,129.635,180.749,129.375,180.749Zm3.208-8.206c0-.961.3-.961.458-.961.324,0,.458,0,.458.917a7.349,7.349,0,0,1-.365,1.431A2.816,2.816,0,0,1,132.583,172.543Zm.351,4.926q.043-.119.083-.242c.17-.51.323-.969.46-1.381q.285.314.615.644c.086.086.3.279.583.521C134.111,177.135,133.509,177.287,132.935,177.469Zm5.149.239c0,.206,0,.291-.425.294a3.378,3.378,0,0,1-.77-.44c.129-.014.225-.021.278-.021C137.844,177.541,138.036,177.607,138.083,177.708Z" transform="translate(-125.25 -163.333)" fill="#717171"/>
      </g>
    </g>
  </g>
</svg>
