<svg xmlns="http://www.w3.org/2000/svg" width="22.707" height="22.696" viewBox="0 0 22.707 22.696">
  <path id="pen_2_" data-name="pen (2)" d="M19.473.856a3.03,3.03,0,0,0-4.281,0L14.12,1.934,2.713,13.335l-.024.024c-.006.006-.006.012-.012.012-.012.018-.03.036-.042.054s-.006.006-.006.012-.018.03-.03.048-.006.012-.012.018-.012.03-.018.048-.006.006-.006.012L.031,21.175a.6.6,0,0,0,.145.617.609.609,0,0,0,.43.176.714.714,0,0,0,.194-.03L8.4,19.4c.006,0,.006,0,.012-.006a.219.219,0,0,0,.054-.024.021.021,0,0,0,.012-.006c.018-.012.042-.024.06-.037s.036-.03.055-.042.012-.006.012-.012.018-.012.024-.024L21.113,6.772a3.029,3.029,0,0,0,0-4.281ZM8.211,17.978,4,13.765,14.544,3.218l4.214,4.214ZM3.4,14.885l3.681,3.681L1.557,20.406ZM20.26,5.924l-.642.648L15.4,2.358l.648-.648a1.816,1.816,0,0,1,2.567,0l1.647,1.647a1.822,1.822,0,0,1-.006,2.567Zm0,0" transform="translate(0.26 0.477)" fill="#2491d9" stroke="#2491d9" stroke-miterlimit="10" stroke-width="0.5"/>
</svg>
