<svg xmlns="http://www.w3.org/2000/svg" width="20.358" height="20.359" viewBox="0 0 20.358 20.359">
  <path id="Path_107" data-name="Path 107" d="M126.82,1.176a3.123,3.123,0,0,0-4.417,0L110.022,13.557a.694.694,0,0,0-.178.306l-1.628,5.878a.694.694,0,0,0,.854.854l5.878-1.628a.694.694,0,0,0,.306-.178L127.634,6.407a3.126,3.126,0,0,0,0-4.417ZM111.534,14.008,121.667,3.875l3.268,3.268L114.8,17.276Zm-.653,1.31,2.611,2.611-3.612,1Zm15.772-9.893-.736.736-3.268-3.268.736-.736a1.735,1.735,0,0,1,2.453,0l.815.814A1.738,1.738,0,0,1,126.653,5.425Zm0,0" transform="translate(-108.19 -0.261)" fill="#aeacac"/>
</svg>
