<svg xmlns="http://www.w3.org/2000/svg" width="11.684" height="8.999" viewBox="0 0 11.684 8.999">
  <g id="left-arrow_2_" data-name="left-arrow (2)" transform="translate(11.684 67.829) rotate(180)">
    <g id="Group_25" data-name="Group 25" transform="translate(0 62.857)">
      <g id="Group_24" data-name="Group 24" transform="translate(0 0)">
        <path id="Path_19" data-name="Path 19" d="M11.212,235.318H.472a.472.472,0,0,0,0,.944h10.74a.472.472,0,0,0,0-.944Z" transform="translate(0 -235.318)" fill="#fff"/>
      </g>
    </g>
    <g id="Group_27" data-name="Group 27" transform="translate(0 58.83)">
      <g id="Group_26" data-name="Group 26" transform="translate(0 0)">
        <path id="Path_20" data-name="Path 20" d="M1.14,63.329l3.694-3.694a.472.472,0,0,0-.667-.667L.138,63a.472.472,0,0,0,0,.667L4.166,67.69a.472.472,0,1,0,.667-.667Z" transform="translate(0 -58.83)" fill="#fff"/>
      </g>
    </g>
  </g>
</svg>
