<svg xmlns="http://www.w3.org/2000/svg" width="16.458" height="16.43" viewBox="0 0 16.458 16.43">
  <g id="settings_1_" data-name="settings (1)" transform="translate(-6.4 -6.4)">
    <g id="Group_57" data-name="Group 57" transform="translate(6.4 6.4)">
      <path id="Path_27" data-name="Path 27" d="M6.981,12.915A.574.574,0,0,0,6.4,13.5v2.266a.574.574,0,0,0,.581.581H8.043a6.385,6.385,0,0,0,.722,1.728l-.737.737a.581.581,0,0,0,0,.822l1.6,1.6a.581.581,0,0,0,.822,0l.751-.751a6.829,6.829,0,0,0,1.728.708v1.062a.574.574,0,0,0,.581.581h2.266a.574.574,0,0,0,.581-.581V21.173a6.734,6.734,0,0,0,1.714-.708l.765.765a.581.581,0,0,0,.822,0l1.6-1.6a.581.581,0,0,0,0-.822l-.765-.765a6.734,6.734,0,0,0,.708-1.714h1.076a.574.574,0,0,0,.581-.581V13.482a.574.574,0,0,0-.581-.581H21.2a6.734,6.734,0,0,0-.708-1.714l.765-.765a.581.581,0,0,0,0-.822L19.643,8.015a.581.581,0,0,0-.822,0l-.751.751a7.43,7.43,0,0,0-1.728-.722V6.981a.574.574,0,0,0-.581-.581H13.5a.574.574,0,0,0-.581.581V8.043a6.829,6.829,0,0,0-1.728.708L10.437,8a.581.581,0,0,0-.822,0l-1.6,1.615a.581.581,0,0,0,0,.822l.737.737a6.29,6.29,0,0,0-.722,1.742H6.981Zm2.1.68a5.627,5.627,0,0,1,.892-2.167.58.58,0,0,0-.071-.737l-.652-.666.779-.779.666.666a.58.58,0,0,0,.737.071A5.5,5.5,0,0,1,13.6,9.091a.59.59,0,0,0,.482-.567V7.576h1.1v.949a.566.566,0,0,0,.467.567,5.656,5.656,0,0,1,2.153.892.58.58,0,0,0,.737-.071l.68-.68.779.779-.68.68a.58.58,0,0,0-.071.737,5.889,5.889,0,0,1,.892,2.153.6.6,0,0,0,.567.482h.963v1.1h-.963a.566.566,0,0,0-.567.467,5.441,5.441,0,0,1-.892,2.153.58.58,0,0,0,.071.737l.68.68-.779.779-.68-.68a.58.58,0,0,0-.737-.071,5.441,5.441,0,0,1-2.153.892.589.589,0,0,0-.467.567v.949h-1.1v-.949a.565.565,0,0,0-.482-.567,5.416,5.416,0,0,1-2.167-.892.58.58,0,0,0-.737.071l-.666.666-.779-.737.666-.666a.58.58,0,0,0,.071-.737,5.745,5.745,0,0,1-.906-2.167A.577.577,0,0,0,8.51,15.2H7.576v-1.1H8.51a.616.616,0,0,0,.567-.5Z" transform="translate(-6.4 -6.4)" fill="#767676"/>
      <path id="Path_28" data-name="Path 28" d="M40.28,44.96a3.98,3.98,0,1,0-3.98-3.98A3.984,3.984,0,0,0,40.28,44.96Zm0-6.8a2.819,2.819,0,1,1-2.819,2.819A2.817,2.817,0,0,1,40.28,38.161Z" transform="translate(-32.065 -32.666)" fill="#767676"/>
    </g>
  </g>
</svg>
