<svg xmlns="http://www.w3.org/2000/svg" width="24.837" height="22" viewBox="0 0 24.837 22">
  <g id="share" transform="translate(0 -29.237)">
    <g id="Group_92" data-name="Group 92" transform="translate(8.309 29.237)">
      <g id="Group_91" data-name="Group 91" transform="translate(0 0)">
        <path id="Path_61" data-name="Path 61" d="M187.546,35.753l-6.272-6.241a.946.946,0,0,0-1.613.67v2.833a8.149,8.149,0,0,0-4.942,1.751,9.479,9.479,0,0,0-3.339,8.556c0,.013,0,.026.006.038l.126.725a.945.945,0,0,0,1.742.325l.378-.63c2.066-3.436,4.618-3.989,6.029-3.993v2.939a.946.946,0,0,0,1.616.667l6.272-6.3A.946.946,0,0,0,187.546,35.753Zm-5.993,4.683V38.913a.945.945,0,0,0-.795-.934,8.135,8.135,0,0,0-7.491,3.074,7.48,7.48,0,0,1,2.68-4.848A.592.592,0,0,0,176,36.16a6.939,6.939,0,0,1,4.514-1.281h.095a.945.945,0,0,0,.946-.946V32.457l3.99,3.969Z" transform="translate(-171.297 -29.237)" fill="#fff"/>
      </g>
    </g>
    <g id="Group_94" data-name="Group 94" transform="translate(0 33.587)">
      <g id="Group_93" data-name="Group 93" transform="translate(0 0)">
        <path id="Path_62" data-name="Path 62" d="M21.117,131.04a.945.945,0,0,0-.946.946v2.679H1.891V120.8H7.564a.946.946,0,0,0,0-1.891H.946A.945.945,0,0,0,0,119.85V135.61a.945.945,0,0,0,.946.946H21.117a.945.945,0,0,0,.946-.946v-3.625A.945.945,0,0,0,21.117,131.04Z" transform="translate(0 -118.905)" fill="#fff"/>
      </g>
    </g>
  </g>
</svg>
