<svg xmlns="http://www.w3.org/2000/svg" width="9.333" height="14" viewBox="0 0 9.333 14">
  <g id="sort_1_" data-name="sort (1)" transform="translate(-85.334 -0.001)">
    <g id="Group_198" data-name="Group 198" transform="translate(85.334 0.001)">
      <g id="Group_197" data-name="Group 197" transform="translate(0 0)">
        <path id="Path_170" data-name="Path 170" d="M219,2.506,216.664.172h0q-.02-.02-.042-.038L216.6.118,216.575.1,216.55.084,216.526.07,216.5.058l-.025-.012-.026-.01-.028-.01L216.394.02l-.029-.007-.031,0-.026,0a.587.587,0,0,0-.115,0l-.026,0-.031,0-.029.007-.027.007-.028.01-.026.01L216,.058l-.027.013-.023.014L215.928.1,215.9.118l-.021.016c-.015.012-.029.025-.042.038h0l-2.333,2.333a.583.583,0,0,0,.825.825l1.338-1.338V8.752a.583.583,0,1,0,1.167,0V1.993l1.338,1.338A.583.583,0,1,0,219,2.506Z" transform="translate(-209.835 -0.001)" fill="#787878"/>
        <path id="Path_171" data-name="Path 171" d="M90.171,176.671l-1.338,1.338V171.25a.583.583,0,1,0-1.167,0v6.758l-1.338-1.338a.583.583,0,0,0-.825.825l2.333,2.333h0c.013.013.028.026.042.038l.021.016.025.018.025.015.023.014.027.013.025.012.026.01.028.01.026.007.029.007.031,0,.026,0a.588.588,0,0,0,.115,0l.026,0,.031,0,.029-.007.026-.007.028-.01.026-.01.025-.012.027-.013.023-.014.025-.015.025-.018.021-.016q.022-.018.042-.038h0L91,177.5a.583.583,0,1,0-.825-.825Z" transform="translate(-85.334 -166)" fill="#787878"/>
      </g>
    </g>
  </g>
</svg>
