<svg xmlns="http://www.w3.org/2000/svg" width="27.25" height="27.249" viewBox="0 0 27.25 27.249">
  <g id="success_1_" data-name="success (1)" transform="translate(0 -0.005)">
    <path id="Path_331" data-name="Path 331" d="M27.25,13.629A13.625,13.625,0,0,1,3.991,23.264,13.625,13.625,0,1,1,23.259,4,13.533,13.533,0,0,1,27.25,13.629Z" fill="#eefff5"/>
    <path id="Path_333" data-name="Path 333" d="M109.655,98.385A11.264,11.264,0,1,1,98.39,87.121,11.277,11.277,0,0,1,109.655,98.385Z" transform="translate(-84.766 -84.756)" fill="#60c98d"/>
    <path id="Path_335" data-name="Path 335" d="M181.742,196.574l-5.389,5.246-.968.942c-.011.011-.023.021-.035.031s-.023.022-.036.032l-.041.03-.039.028c-.014.009-.029.017-.044.026l-.041.024c-.015.008-.031.015-.047.021s-.027.013-.041.019l-.051.018-.04.014-.056.013-.037.009c-.022,0-.043.007-.065.009l-.029,0c-.031,0-.063,0-.095,0h0a.951.951,0,0,1-.1-.005l-.03,0c-.022,0-.044-.005-.066-.01l-.036-.009L174.4,203l-.039-.014-.053-.019-.041-.019-.048-.023c-.014-.007-.027-.016-.041-.025s-.03-.017-.045-.027-.027-.019-.04-.029l-.041-.031c-.013-.011-.025-.023-.038-.034s-.023-.02-.034-.031l-3.023-3.023a1,1,0,1,1,1.417-1.417l2.325,2.324,1.657-1.613,3.991-3.884a1,1,0,1,1,1.4,1.435Z" transform="translate(-162.728 -185.303)" fill="#fff"/>
  </g>
</svg>
