<svg xmlns="http://www.w3.org/2000/svg" width="25.888" height="25.888" viewBox="0 0 25.888 25.888">
  <g id="table-icon" transform="translate(0.5 0.5)">
    <g id="Group_136" data-name="Group 136">
      <path id="Path_190" data-name="Path 190" d="M24.323,0H.566A.565.565,0,0,0,0,.566V24.323a.565.565,0,0,0,.566.566H24.323a.565.565,0,0,0,.566-.566V.566A.565.565,0,0,0,24.323,0ZM7.919,23.757H1.131V16.969H7.919Zm0-7.919H1.131V9.05H7.919Zm0-7.919H1.131V1.131H7.919Zm7.919,15.838H9.05V16.969h6.788Zm0-7.919H9.05V9.05h6.788Zm0-7.919H9.05V1.131h6.788Zm7.919,15.838H16.969V16.969h6.788Zm0-7.919H16.969V9.05h6.788Zm0-7.919H16.969V1.131h6.788Z" fill="#1685ce" stroke="#1685ce" stroke-width="1"/>
    </g>
  </g>
</svg>
