<svg xmlns="http://www.w3.org/2000/svg" width="28.522" height="36" viewBox="0 0 28.522 36">
  <g id="surface1" transform="translate(-0.5)">
    <path id="Path_329" data-name="Path 329" d="M19.9.278A.871.871,0,0,0,19.274,0H5.23A4.75,4.75,0,0,0,.5,4.722V31.278A4.75,4.75,0,0,0,5.23,36H24.291a4.75,4.75,0,0,0,4.73-4.722V10.191a.936.936,0,0,0-.252-.609Zm.252,2.791L26.091,9.3H22.23a2.071,2.071,0,0,1-2.078-2.07Zm4.139,31.191H5.23a3.012,3.012,0,0,1-2.991-2.983V4.722A3.012,3.012,0,0,1,5.23,1.739H18.413v5.5a3.8,3.8,0,0,0,3.817,3.809h5.052V31.278A3.006,3.006,0,0,1,24.291,34.261Zm0,0" fill="#1685ce"/>
    <path id="Path_330" data-name="Path 330" d="M104.354,401.934H90.041a.87.87,0,1,0,0,1.739h14.322a.87.87,0,1,0-.009-1.739Zm0,0" transform="translate(-82.437 -373.673)" fill="#1685ce"/>
    <path id="Path_331" data-name="Path 331" d="M119.9,177.227l3.583-3.852v9.5a.87.87,0,0,0,1.739,0v-9.5l3.583,3.852a.868.868,0,0,0,1.27-1.183l-5.1-5.47a.863.863,0,0,0-1.269,0l-5.1,5.47a.867.867,0,0,0,.043,1.226A.887.887,0,0,0,119.9,177.227Zm0,0" transform="translate(-109.593 -158.323)" fill="#1685ce"/>
  </g>
</svg>
