<svg xmlns="http://www.w3.org/2000/svg" width="31" height="27.45" viewBox="0 0 31 27.45">
  <g id="upload" transform="translate(0 -24)">
    <g id="Group_517" data-name="Group 517" transform="translate(0 24)">
      <g id="Group_516" data-name="Group 516" transform="translate(0 0)">
        <circle id="Ellipse_2" data-name="Ellipse 2" cx="2.13" cy="2.13" r="2.13" transform="translate(9.554 6.774)" fill="#1685ce"/>
        <path id="Path_82" data-name="Path 82" d="M29.166,40.742A6.559,6.559,0,0,0,25.5,39V28.171a4.259,4.259,0,0,0-1.213-2.958A4.133,4.133,0,0,0,21.327,24H4.171a4.259,4.259,0,0,0-2.958,1.213A4.133,4.133,0,0,0,0,28.171V45.83a4.259,4.259,0,0,0,1.213,2.958A4.133,4.133,0,0,0,4.171,50H20.765a6.258,6.258,0,0,0,8.4-9.259ZM1.568,28.171a2.476,2.476,0,0,1,.769-1.8A2.6,2.6,0,0,1,4.171,25.6H21.327a2.626,2.626,0,0,1,2.6,2.6v9.229l-4.378-4.378a.794.794,0,0,0-1.124,0l-6.6,6.626-4.467-4.5a.794.794,0,0,0-1.124,0L1.568,39.914ZM4.141,48.492v-.059a2.6,2.6,0,0,1-1.834-.769,2.7,2.7,0,0,1-.74-1.834V42.162L6.8,36.9l4.467,4.467a.823.823,0,0,0,1.124,0l6.6-6.626,4.319,4.348-.266.089a2.747,2.747,0,0,0-.385.118c-.118.03-.237.089-.355.118a.886.886,0,0,0-.237.118,2.748,2.748,0,0,0-.3.148l-.444.266c-.089.059-.148.089-.237.148-.059.03-.089.059-.148.089a3.569,3.569,0,0,0-.71.621A6.258,6.258,0,0,0,18.4,45.239a6.5,6.5,0,0,0,.148,1.3c.03.118.059.207.089.325.089.3.177.592.3.887v.03a5.426,5.426,0,0,0,.385.71Zm23.871,0a4.679,4.679,0,0,1-6.537.059c-.118-.118-.237-.266-.355-.385-.089-.089-.177-.207-.266-.3a2.809,2.809,0,0,1-.3-.5c-.059-.118-.118-.207-.177-.325a2.5,2.5,0,0,1-.148-.5c-.03-.118-.089-.266-.118-.385a4.9,4.9,0,0,1-.089-.947A4.748,4.748,0,0,1,21.386,41.9,4.573,4.573,0,0,1,24.7,40.535,4.748,4.748,0,0,1,28.012,41.9a4.623,4.623,0,0,1,1.361,3.313A4.731,4.731,0,0,1,28.012,48.492Z" transform="translate(0 -24)" fill="#1685ce"/>
        <path id="Path_83" data-name="Path 83" d="M301.78,264.637a1.034,1.034,0,0,0-.266-.177.865.865,0,0,0-.266-.059h-.059a.865.865,0,0,0-.266.059.7.7,0,0,0-.266.177l-1.834,1.834a.795.795,0,0,0,1.124,1.124l.473-.473v3.254a.8.8,0,0,0,1.6,0v-3.254l.473.473a.795.795,0,0,0,1.124-1.124Z" transform="translate(-276.518 -246.622)" fill="#1685ce"/>
      </g>
    </g>
  </g>
</svg>
