<svg xmlns="http://www.w3.org/2000/svg" width="46" height="50.563" viewBox="0 0 46 50.563">
  <g id="surface1" transform="translate(0 0)">
    <path id="Path_37" data-name="Path 37" d="M34.461,21.888V12.319a1.108,1.108,0,0,0-.305-.727L23.427.327A1.069,1.069,0,0,0,22.658,0H5.648A5.667,5.667,0,0,0,0,5.7V37.865a5.631,5.631,0,0,0,5.648,5.659H19.075A14.493,14.493,0,1,0,34.461,21.888ZM23.712,3.7l7.2,7.577H26.241a2.545,2.545,0,0,1-2.529-2.54ZM5.648,41.416a3.531,3.531,0,0,1-3.541-3.551V5.7A3.56,3.56,0,0,1,5.648,2.108H21.6V8.736a4.646,4.646,0,0,0,4.637,4.647h6.112v8.23c-.316-.01-.569-.042-.843-.042A14.7,14.7,0,0,0,21.9,25.2H8.515a1.054,1.054,0,1,0,0,2.107H19.939a16.767,16.767,0,0,0-1.855,3.267H8.515a1.054,1.054,0,0,0,0,2.108H17.4a14.463,14.463,0,0,0,.632,8.747H5.648ZM31.5,48.466A12.383,12.383,0,1,1,43.882,36.083,12.4,12.4,0,0,1,31.5,48.466Zm0,0" fill="#b4b4b4"/>
    <path id="Path_38" data-name="Path 38" d="M76.6,203.792H87.28a1.054,1.054,0,1,0,0-2.108H76.6a1.054,1.054,0,1,0,0,2.108Zm0,0" transform="translate(-68.09 -181.766)" fill="#b4b4b4"/>
    <path id="Path_39" data-name="Path 39" d="M253.557,283.548a1.046,1.046,0,0,0-1.538,0l-6.176,6.629a1.05,1.05,0,0,0,.053,1.486,1.076,1.076,0,0,0,1.507-.052l4.363-4.669V298.45a1.054,1.054,0,1,0,2.108,0V286.942l4.331,4.669a1.052,1.052,0,0,0,1.539-1.434Zm0,0" transform="translate(-221.309 -255.242)" fill="#b4b4b4"/>
  </g>
</svg>
