<svg xmlns="http://www.w3.org/2000/svg" width="37.28" height="11.667" viewBox="0 0 37.28 11.667">
  <g id="visa_3_" data-name="visa (3)" transform="translate(0 -100.23)">
    <g id="Group_57" data-name="Group 57" transform="translate(3.483 100.23)">
      <g id="Group_56" data-name="Group 56" transform="translate(0 0)">
        <path id="Path_45" data-name="Path 45" d="M39.017,100.23l-1.871,11.643h2.991l1.87-11.643Zm9.021,4.743c-1.045-.516-1.686-.864-1.686-1.392.013-.48.542-.972,1.723-.972a5.2,5.2,0,0,1,2.228.431l.271.121.407-2.436a7.549,7.549,0,0,0-2.684-.48c-2.953,0-5.033,1.535-5.046,3.732-.024,1.621,1.489,2.52,2.621,3.059,1.157.553,1.551.912,1.551,1.4-.013.755-.935,1.1-1.8,1.1a6.082,6.082,0,0,1-2.806-.6l-.394-.179-.418,2.532a9.339,9.339,0,0,0,3.335.6c3.139,0,5.181-1.512,5.207-3.853C50.56,106.76,49.762,105.777,48.038,104.973Zm10.61-4.707H56.334a1.482,1.482,0,0,0-1.563.937l-4.442,10.67h3.139l.864-2.31h3.511l.449,2.32h2.768ZM55.2,107.232c.061.006,1.2-3.771,1.2-3.771l.911,3.771Zm-20.554-7-2.93,7.911-.319-1.56a8.693,8.693,0,0,0-4.136-4.728l2.683,10.009h3.164l4.7-11.63H34.647Z" transform="translate(-27.262 -100.23)" fill="#2394bc"/>
      </g>
    </g>
    <path id="Path_46" data-name="Path 46" d="M6.634,101.747a1.954,1.954,0,0,0-1.946-1.5H.048L0,100.463c3.62.892,6.658,3.638,7.644,6.221Z" transform="translate(0 -0.016)" fill="#efc75e"/>
  </g>
</svg>
