<svg xmlns="http://www.w3.org/2000/svg" xmlns:xlink="http://www.w3.org/1999/xlink" width="20" height="16" viewBox="0 0 20 16">
  <defs>
    <clipPath id="clip-path">
      <rect id="Rectangle_563" data-name="Rectangle 563" width="20" height="16" transform="translate(51 741)" fill="#fff" stroke="#707070" stroke-width="1"/>
    </clipPath>
  </defs>
  <g id="Mask_Group_3" data-name="Mask Group 3" transform="translate(-51 -741)" clip-path="url(#clip-path)">
    <g id="eye" transform="translate(51 650.165)">
      <g id="Group_547" data-name="Group 547" transform="translate(0 92.835)">
        <g id="Group_546" data-name="Group 546" transform="translate(0 0)">
          <path id="Path_104" data-name="Path 104" d="M19.871,98.819c-.179-.244-4.436-5.984-9.872-5.984S.305,98.575.127,98.819a.66.66,0,0,0,0,.778c.178.244,4.436,5.984,9.872,5.984s9.694-5.74,9.872-5.984A.659.659,0,0,0,19.871,98.819ZM10,104.263c-4,0-7.473-3.81-8.5-5.055,1.025-1.247,4.487-5.054,8.5-5.054s7.473,3.809,8.5,5.055C17.474,100.455,14.013,104.263,10,104.263Z" transform="translate(0 -92.835)" fill="#ababab"/>
        </g>
      </g>
      <g id="Group_549" data-name="Group 549" transform="translate(6.043 95.252)">
        <g id="Group_548" data-name="Group 548" transform="translate(0 0)">
          <path id="Path_105" data-name="Path 105" d="M158.678,154.725a3.956,3.956,0,1,0,3.956,3.956A3.96,3.96,0,0,0,158.678,154.725Zm0,6.593a2.637,2.637,0,1,1,2.637-2.637A2.64,2.64,0,0,1,158.678,161.318Z" transform="translate(-154.722 -154.725)" fill="#ababab"/>
        </g>
      </g>
    </g>
  </g>
</svg>
