<svg id="zoom-in" xmlns="http://www.w3.org/2000/svg" width="13.768" height="13.767" viewBox="0 0 13.768 13.767">
  <g id="Group_31" data-name="Group 31" transform="translate(0 0)">
    <path id="Path_21" data-name="Path 21" d="M5.759,11.933A5.578,5.578,0,0,0,9.4,10.584l3.779,3.779a.437.437,0,1,0,.618-.618l-3.78-3.779a5.6,5.6,0,1,0-4.255,1.967Zm0-10.336A4.731,4.731,0,1,1,1.027,6.329,4.737,4.737,0,0,1,5.759,1.6Z" transform="translate(-0.154 -0.724)" fill="#686868"/>
    <path id="Path_22" data-name="Path 22" d="M16.581,19.82h1.1v1.1a.437.437,0,0,0,.874,0v-1.1h1.1a.437.437,0,0,0,0-.874h-1.1v-1.1a.437.437,0,0,0-.874,0v1.1h-1.1a.437.437,0,0,0,0,.874Z" transform="translate(-12.662 -13.778)" fill="#686868"/>
  </g>
</svg>
