<svg id="zoom-out" xmlns="http://www.w3.org/2000/svg" width="13.767" height="13.767" viewBox="0 0 13.767 13.767">
  <g id="Group_33" data-name="Group 33" transform="translate(0 0)">
    <path id="Path_23" data-name="Path 23" d="M6.141,11.638a5.576,5.576,0,0,0,3.637-1.349l3.78,3.779a.437.437,0,0,0,.618-.618L10.4,9.672a5.6,5.6,0,1,0-4.255,1.967Zm0-10.336A4.731,4.731,0,1,1,1.409,6.034,4.736,4.736,0,0,1,6.141,1.3Z" transform="translate(-0.536 -0.429)" fill="#686868"/>
    <path id="Path_24" data-name="Path 24" d="M17.651,25.148H20.72a.437.437,0,1,0,0-.873H17.651a.437.437,0,1,0,0,.873Z" transform="translate(-13.599 -19.107)" fill="#686868"/>
  </g>
</svg>
